<?xml version="1.0" encoding="UTF-8"?><svg id="a" xmlns="http://www.w3.org/2000/svg" viewBox="0 0 330.6 345.1">
<title>Dallas_Mavericks_2001-2017-logo - brandlogos.net</title><path d="M318.3,177.1c1.9-4.7,9.1-22.5,9.1-22.5l-30.3,17c-.1.1-9,5-21.9,10.5,6.5-16.1,12.2-32.6,17.8-54.1,10.7-41,16.5-86.1,16.7-88l2.3-18.2s-57.1,15.8-62.6,17.4C229.1,14.6,197.8,0,165,0c-33,0-64.3,14.7-84.6,39.4-5.7-1.6-63-17.6-63-17.6l2.4,18.3c.1.5,6.1,46.8,17.3,88.4,5.5,20.3,11.6,36.7,17.9,52.3-13.7-5.8-25.2-11.3-25.3-11.3l-28.1-13.5s6.7,17,8.6,21.7c-.4-.1-10.2-3.9-10.2-3.9l9.4,25.4v-.1c.6,1.9,4.6,12.7,35.1,94.7l4.2,11.3s6.8-2.2,8.8-2.8c1.7,4.5,6.1,16.4,6.1,16.4l12.3-6.3c9.4-4.8,29.4-13,45.7-15.6,19.3,26.5,34.4,40.2,35.1,40.8l8.3,7.5,8.2-7.7c.7-.6,15.9-15,34.8-40.7,18.1,2.4,33.6,9.7,41.4,14.1l12,6.6,5.2-12.6s.6-1.5,1.3-3.2c1,.3,6.8,2.3,6.8,2.3l4.4-11.3c.9-2.2,20.3-47.7,39-91.6l12.5-29.3c-.1.1001-12.2,5.4001-12.3,5.4001Z" style="fill:#fff;"/><path d="M299.6,176c-.2.1-14.5,8.1-33.5,15.3,8.6-20.4,15.3-38.6,22.1-64.6h0c10.7-41,16.5-86.9,16.6-87.4l1.3-10.7-10.4,2.9s-127.9,35.5-131.7,36.5c-3.7-1-140.7-39.4-140.7-39.4l1.4,10.8c.1.5,6,46.3,17.2,87.8,6.8,25.1,14.6,44.4,22.3,62.8-18.3-7.2-36.5-15.9-36.8-16l-16.5-7.9,6.8,17.1c16.3,41,24.5,63.5,35,92l13.5,36.6,7.2-3.7c10.8-5.5,33.1-14.4,50.3-16.5,19.8,27.7,35.5,41.9,36.1,42.5l4.9,4.4,4.8-4.5c.7-.7,16.6-15.7,36-42.4,20.1,2.1,37.3,10.2,46.1,15.1l7,3.9,3.1-7.4c8-19.3,47.5-117.1,47.9-118.1l7.7-18.9-17.7,9.8Z" style="fill:#061922;"/><path d="M314,180.7c-.3.1-32,13.6-57.9,20.1,10.1-23.3,18.9-44.3,27-75.4h0c10.6-40.7,16.4-86.3,16.5-86.7l.4-3.1-3.1.8s-131.9,36.6-133,36.9c-1.1-.3-134.7-37.7-134.7-37.7l.4,3.2c.1.5,6,46,17.1,87.1,7.3,26.9,15.8,47.3,24.1,67,0,0,1.5,3.5,2.7,6.5-22.4-5.7-52.7-16.3-53.1-16.4l-4.3-1.5,1.6,4.2c13.3,35.4,20.1,54.4,27.3,74.5l14.6,40.5,1.9-.6c20.7-6.4,47.4-11.5,64.1-13.7,19.3,27.9,37.2,43.6,37.4,43.8l1.4,1.2,1.4-1.3c.2-.2,17.3-15.7,37.1-43.5,17.2,1.1,49.2,8.4,61.4,13.2l1.9.8.8-1.9c8-19.3,49.2-114.2,49.6-115.2l2.1-4.9-4.7,2.1Z" style="fill:#fff;"/><path d="M248.9,206.8l1.7-3.8c11.2-25.8,20-46.1,28.5-78.6h0c9-34.3,14.4-72,15.9-83-5.9,1.6-130.5,36.2-130.5,36.2l-.6.2S40.2,43.2,34.3,41.5c1.5,11,7.2,48.8,16.5,83.4,7.2,26.7,15.7,46.9,23.9,66.4l5.9,14.2,47.1,76.5.7,1.1c16.2,23.7,31.5,38.5,36,42.8,4.4-4.3,19.1-19,35.8-42.5l.7-1,48-75.6Z" style="fill:#bbc4ca;"/><path d="M75,160.5c-1.3-1.8-6.7-10.5-6.7-25h0v-1.3h0c-3.7-10.1-5.8-20.9-5.8-32.2h0c0-26.8,11.5-51.1,30-68.8h0c18.6-17.6,44.2-28.5,72.4-28.5h0c28.2,0,53.9,10.9,72.4,28.5h0c18.6,17.6,30,41.9,30,68.8h0c0,9.9-1.6,19.5-4.5,28.6h0c0,18.4-5.4,35.5-14.8,50h0c-.1.1-.6.6-1.9,1.3h0s-.1,0-.1.1h0c-.1.1-.2.2-.2.5h0s-.2,1.1-.5,2h0l.2-.1-.4.6c-17.5,24-46.2,39.6-78.7,39.6h0c-42.5,0-78.6-26.8-91.4-64.1h0Z" style="fill:#061922;"/><path d="M303.4,189.2c-.6.3-65.3,28.2-139.4,27.8h0c-65.2-.3-139.1-28.2-139.9-28.5l-15.6-6,5.6,15q.1.4,35.1,94.7l2.5,6.8,6.9-2.2c15.4-4.9,56.5-16.3,105.2-16.3,45.3,0,84.9,9.3,101.1,14.9l6.9,2.3,2.7-6.8c1-2.5,23.9-56.2,39-91.8l7.5-17.6-17.6,7.7Z" style="fill:#0064b1;"/><path d="M304.1,198.3l-6.6,2.4s-14.6,5.3-14.7,5.4c-.7.2-6,1.9-10.1,5.4-1.4,1.2-2.9,2.9-4.2,4.7.3-.7.4-1.2.4-1.2l2-5.4-5.6,1.5-13.3,3.5h0c-1.3.3-10.3,2.2-13,2.8l-3.1.5-15.5,2.6c-.7.1-6.7,1.2-9.8,4.3-.7.7-1.3,1.5-1.8,2.3l.9-5.2-3.9.4-12.6,1.2-.4,3.3c-.3-.4-.7-.8-1.1-1.1-2.4-1.8-6.3-1.8-7.5-1.7l-18.4.5h0l-14.9-.1c-.6,0-5.3.2-8.5,3.3-.5.5-.9,1-1.3,1.6-.1-1.8-.1-2.8-.1-2.8l-.1-2.7s-15-1.4-15.6-1.4h0l-18.2-2.3.8,4.1.2,1.1c-4.1-4.8-10.6-6.5-10.9-6.6-.1,0-18.7-4.2-18.7-4.2l1.2,4.8.9,3.6c-.5-1-1.1-1.9-1.7-2.6-2.7-3.5-5-6.1-10.3-8-4.6-1.7-13.9-3.9-14.3-4l-5.3-1.2h0c-4.8-2.1-15.4-5.5-18.9-6.7l-5.9-1.9,2.2,5.9,30.8,83.2s12.1-3.3,12.7-3.5h0s12.6-3,13.6-3.2c.6-.1,13.3-2.4,13.3-2.4v-.1c3.5-.5,10.6-1.6,11.3-1.7.6-.1,6.7-1,10.1-1.4h0l12.8-1.3c1.4-.1,5.5-.5,7.7-2.3.8-.7,1.5-1.4,2-2.1l.2,3.5,15.1-.5h.1c.5,0,4.6-.5,7.2-3.1.3-.3.6-.6.9-1l-.1,3.9s11.6.3,12.1.3h0l13.8.4h0l9.9.8,12.6,1.4c.5.1,4.9.4,9-1.8.4-.2.7-.4,1-.7l-1,3.6,12.9,2.2v-.1c.4.1,9.3,1.7,11.4,2.1l1.4.4c.3.1,6.5,1.7,11.5,1.1,5.9-.7,12-5.5,14.7-11.7l12.8-29.6h-.1c0-.8,18.0001-42.5,18.0001-42.5Z" style="fill:#fff;"/><polygon points="190.4 269.8 198.4 270.4 206 225.3 195.9 226.3 190.4 269.8" style="fill:#061922;"/><path d="M223.6,228.7l-3.8,16.1,10-.3,6.6-23.6-15.4,2.6s-5.6.9-8.2,3.5c-3.5,3.5-4.4,10-4.4,10l-6.1,33.7,10,1s4,.5,7.3-1.2c2.4-1.2,3.9-3.8,4.7-6.2.8-2.4,3.1-12,3.1-12h-9.5l-2,9.6s-.3,1.9-1.7,3.8-4.1,1.7-4.1,1.7l6.6-30.2s1.1-4.1,2.5-6.2c1.9-2.4,4.4-2.3,4.4-2.3Z" style="fill:#061922;"/><path d="M240.8,245.6l8.6-27.3-8.8,1.9-15.4,53.3,6.9,1.1,7.2-22.8,2.1-.1s1.3.5,1.3,1.8-.6,2.8-.6,2.8l-6.1,18.9,8.1,1.5,6.7-19.6s1-3.3.8-4.8c-.4-2.7-1.7-4.3-1.7-4.3,0,0,1.7,0,3.9-2.2,2.2-2.2,2.2-3.8,2.8-5.4.6-1.6,9.5-26.3,9.5-26.3l-11.6,2.9-6.8,22s-.5,2.2-1.6,3.9c-1.1,1.6-1.9,2.2-2.5,2.3-1.5.4001-2.8.4001-2.8.4001Z" style="fill:#061922;"/><path d="M281,218.7l-7.5,20.2,10.3-.5,14.7-34.8-14.7,5.4s-5.2,1.6-9.2,4.8c-3.1,2.6-6.7,8.6-7.5,10.5s-4.2,9.4-4.7,11.9c-.6,2.4-5.6,15.9-5.6,15.9h11.7l-5,13.2s-.6,3-2.5,5.4-4.7,2.7-4.7,2.7l6.7-17h-7.2l-7.8,21.2s5.9,1.7,10.3,1.2c4.5-.5,9.8-4.3,12.3-9.9,2.5-5.7,10.8-25.1,10.8-25.1l-13.9.7,4.3-12.4s2.9-7.1,5-9.6c1.0001-1.7001,4.2001-3.8,4.2001-3.8Z" style="fill:#061922;"/><path d="M29.1,203l29.8,80.6,8.8-2.5-22.1-65.2s3.3.3,6.1,5.4c2.8,5.1,4.2,8.9,5,12.1.8,3.2,14.9,46.8,14.9,46.8l9-2.1-17.2-57.3s2.2,0,4.4,3.8c2.2,3.8,3.1,7,3.1,7l13.2,45.8,8.6-1.7-11-42.5s-2.5-7.5-5.3-11.4c-2.2-3-4.7-5.4-8.8-6.8-4.4-1.5-14-4-14-4l1.4,4.3s-3.2-3.6-6.1-5.2c-2.6-1.3-19.8-7.1-19.8-7.1Z" style="fill:#061922;"/><path d="M109.1,273l7.5-1-6.4-33.5s-1.5-7.5-3.4-10.4c-3.3-5.2-10.4-7-10.4-7l-13.8-2.8,14.3,56.7,8.5-1.4-5.3-21.2,4.9.1,4.1,20.5ZM99.1,247.2l-4.8-20.9s2.8.6,4.5,2.2,2.2,6.1,2.2,6.1l2.5,12.5h-4.4v.1Z" style="fill:#061922;"/><path d="M110.9,223.4l9.5,48.2,10.2-1.1s4.7-.2,6-1.2c2.8-2.2,2.8-5.4,2.8-5.4l-1.2-37.4-9.8-1,3.6,35.4s.2,3.2-1.4,4.9c-1.3,1.4-2.8,1.1-2.8,1.1l-5.1-42-11.8-1.5Z" style="fill:#061922;"/><path d="M143.6,269.6l12-.5s3.5-.3,5.4-2.2c1.9-1.9,2.3-5.3,2.3-5.3l.2-6.8-8.1.1.1,6.7s.1,2.2-.9,3.3c-.8.8-3.6.7-3.6.7v-13.5h12.5l.3-4.1-13,.1v-11.9s-.1-1.7,1.1-2.6c1.3-1,3.5-.7,3.5-.7v12.3h8.6l1.1-17.6-14.4-.3s-3.9.1-6.4,2.4c-2.8,2.7-2.5,8.9-2.5,8.9l1.8,31Z" style="fill:#061922;"/><path d="M189.7,228.6c-1.6-1.6-5.5-1.4-5.5-1.4l-15.6.4-1.6,41.5,7.9.2,1-17.1s2.5-.8,3.7.9c.8,1.2.7,2.5.7,2.5l-1,13.7,7.7.4,1.4-13.8s.4-2.4-.4-4.2c-.7-1.6-2.4-2-2.4-2,0,0,1.1,0,2.8-1.9s1.7-4.6,1.7-4.6l1-9.5c-.1-.1.4-3.3-1.4-5.1ZM181.7,233.7l-.6,10.6s0,1.4-.6,2.2c-.6.8-1.3.9-1.3.9l-2.9-.1.9-15.7,2.1-.1s1.2-.1,1.8.4c.7.5.6,1.8.6,1.8Z" style="fill:#061922;"/><path d="M183,287.8l9.8-2.4-10-.9c-.4,0-9.7-.9-14.3-.9-.6-1.8-4.5-13.8-4.5-13.8l-1.7,4.6c-.1.3-2.2,6-3.3,9.3-5.4,0-12.5.7-12.9.7l-10.5,1.1,10.3,2.2c3.1.7,9.5,2.9,10.1,5.6-.8,3.2-3,8.8-3,8.9l-2,5.2s11.2-7.9,12.8-9c1.6,1.1,12.5,8.8,12.5,8.8,0,0-4.5-13-4.9-14,1-1.8001,6.6-4.2001,11.6-5.4001Z" style="fill:#061922;"/><path d="M168.7,292.9c.7-2.8,5.3-4.9,9.1-6.1-3.7-.3-8.4-.7-10.7-.7h-.6s-1.8-5.3-2.8-8.1c-.9,2.4-2.1,6-2.6,7.6l-.2.6h-.6c-2.6,0-6.2.2-9,.4,3.3,1.3,7.1,3.4,7.5,6.6v.4c-.4,1.9-1.4,4.8-2.2,6.9,2.6-1.8,7.3-5.1,7.3-5.1,0,0,4.9,3.4,7.4,5.2-1-2.8-2.6-7.4-2.6-7.4v-.3Z" style="fill:#fff;"/><path d="M67.8,102.1c0-50.7,43.6-92,97.2-92s97.2,41.3,97.2,92-43.6,92-97.2,92c-53.6-.1-97.2-41.3-97.2-92Z" style="fill:#fff;"/><path d="M105.9,40.4l.2-.2c1.2-1,2.2-1.2,3-.2.7.9.1,1.9-.9,2.8l-.2.2-2.1-2.6ZM106.3,47.5l4.1-3.3c2.6-2.1,3.5-4.9,2-6.8-1.9-2.4-5-1.5-8,.9l-3.3,2.7,5.2,6.5Z" style="fill:#061922;"/><path d="M130.4,28.8l-.3-2.7.1-.1c.2.3.4.6.7.9l1,1.2-1.5.7ZM130.4,30.9l2.9-1.2.8.8,4.1-1.7-7-6.2-4.3,1.8-.5,9.3,4.1-1.7-.1-1.1Z" style="fill:#061922;"/><path d="M150.7,17.5l4.2-.5.6,5.7,3.5-.4.3,2.7-7.7.9-.9-8.4Z" style="fill:#061922;"/><path d="M174.6,17l4.2.6-.8,5.6,3.5.5-.4,2.7-7.6-1.1,1.1-8.3Z" style="fill:#061922;"/><path d="M200,29.2l1.7-2,.1.1c-.1.4-.1.7-.2,1.1l-.1,1.6-1.5-.8ZM198.5,30.7l2.9,1.3-.1,1.1,4.1,1.8-.4-9.4-4.3-1.9-7,6.1,4.1,1.8.7-.8Z" style="fill:#061922;"/><path d="M219.4,40.4l.1.2c.3.8.8,1.6,1.5,2.3.3.3.9.6,1.1.3.2-.3-.2-.7-.4-1l-.5-.6c-1.1-1.2-1.7-2.6-.9-3.6,1.3-1.5,3.9-.8,5.8.8,1,.8,1.8,1.8,2.4,2.9l-2.3.9c-.3-.7-.8-1.5-1.5-2-.3-.2-.8-.5-1-.2-.2.2.2.6.4.9l.6.7c1.2,1.4,1.7,2.7.8,3.8-1.3,1.5-3.9.7-5.8-.9-1.1-.9-2.2-2.2-2.9-3.4l2.6-1.1Z" style="fill:#061922;"/><path d="M246.4,78.6c-.6-.6-1.9-1.4-1.9-1.4-.5-.2-.6-.6-.6-.6-.3-1.6-.6-2.2-.6-2.2-8.4-10.8-19.1-19.8-31.4-26.2-2.2-1-4.2-1.1-4.2-1.1-.4,0-.7-.3-.7-.3-.7-1-2.9-2.1-3.7-2.5-11.4-4.6-23.8-7.2-36.9-7.2-4,0-7.9.2-11.7.7l5.1-6.8c-20.2-.6-34.7,15.2-34.7,15.2h0c-4.9,2.3-9.5,4.9-13.8,7.9h0c-10.5,3.8-13.6,12.3-13.6,12.3-2.7,2.2-7.9,9.3-7.9,9.3-1.5.9-3.1,2.3-3.6,2.8-2.4,2.5-6.9,8.2-9.2,18-.1.2-.1.3-.2.5-.1.5-.2,1.2-.3,1.8-.2,1.2-.4,2.4-.6,3.6l.1-.1c0,.3-.1.4-.1.4-.3.2-1.8,6.2-1.8,6.2-.3.8-3,9-3,9h0v.1c-7.2,25.3,2.4,40.6,4,43,12.8,37.2,48.8,64,91.3,64,32.4,0,61.1-15.6,78.5-39.5h0c.5-.8.7-2.4.7-2.4,0-.5.4-.8.4-.8,1.3-.7,1.8-1.2,1.9-1.3,9.3-14.4,14.7-31.5,14.7-49.9.1-19.7-5.9-37.6-16.2-52.5Z" style="fill:#061922;"/><path d="M126,60.2l.7-.7c.3-.3.4-.4.5-.4l.1-.1c.1-4.8,1.2-8.7,1.2-8.7,8.8-12.2,23.2-15.5,23.2-15.5,1.8-.5.6.3.6.3-9.1,10.2-8.1,18.6-8.1,18.6l8.7,31.7s-7-2.5-12.5-13.6c-2.5,22.2,18.4,40.2,18.4,40.2.9.8-.5-.1-.5-.1-5.2-2.6-11.3-8.1-12.9-9.7.4,1.7,10.6,52.9,10.7,53.1,0,.2.2.7.3,1.1l3.5-8.8,2.9,25.9c-13.3,12.3-27.4,7.5-28.3,7.1.4.6.6,1,.6,1,0,0,11.5,22.5,58.2,20.1,0,0,1.1,0,1,.1,0,0,0,.1-.3.2-.9.3-2.3.5-2.3.5-56.4,15.1-85.7-33-86.9-35.2-.4-.5-3.1-4.3-4.6-8.2-.1-.1-.1-.5.1-.2,0,0,6,6.2,22.9,7.8h.2c-13.1-14.6-18.7-25.2-19.5-26.8h0s-1.6-2.4-3.4-9.1c0,0,0-.3.2,0,.6,1.3,5,7.7,10.2,9.2h0c-4.5-7.2-7.3-18.6-7.6-20.3,6.1,8.5,16.9,9.2,16.9,9.2,0,0,0-.1-.1-.1v.1c-17.8-17.7-13.9-37-6.7-51,4.4001-8.3,9.8-14.6,12.6001-17.7Z" style="fill:#fff;"/><path d="M179.2,177.6l-11.7,12.3h0l14.4-11-7.4-25.7,3.3-30.9-5.7,29.5,7.1,25.8h0Z" style="fill:#bbc4ca;"/><path d="M176.3,115.1c.2-.1.5-.2.7-.4h0c.9-.5,2-1.3,3.2-2.5h0c2.3-2.4,4.6-6.3,4.6-12.5h0c0-2.8-.5-6-1.6-9.7h0c-.2,4.3-1.4,20.3-6.9,25.1h0Z" style="fill:#bbc4ca;"/><path d="M181.7,62.5c4.1-6.1,10.7-6.7,13.6-6.7h0c-2.4-.7-4.7-1-6.7-1h0c-2.9,0-5.2.5-6.9,1.1h0c-1.2.4-2,.8-2.4.9h0c1,1.5,2,4.6,2.4,5.7h0Z" style="fill:#bbc4ca;"/><path d="M176.5,75.4c.1,0,.2.1.2.2h0v1.7h0c0,13.3-3.5,27.8-4.9,32.7h0c5.1-11.6,6.4-22.4,6.4-30.7h0c0-4.9-.5-8.9-.9-11.7h0c-.2-1.4-.5-2.6-.7-3.3h0c-1.3,9.9-5.1,14.5-5.1,14.5h0c0,.1-.1.1-.2.1h0q-.1,0-.2-.1h0c-4.1-7.7-9.6-13.3-14-17.1h0c-3.4-2.9-6.1-4.6-7.2-5.3h0c11.8,25.7,15.3,45.6,16.2,52.1h0v-2.3h0c0-7.8-1.3-16.7-2.7-23.7h0c-1.3-7-2.7-11.9-2.7-11.9h0c0-.1,0-.2.1-.2h0c.1-.1.2,0,.2,0h0c5.3,4.1,9.1,15.9,9.7,18.1h0c1-1.2,2.3-4.3,3.4-7.1h0c1.1-3.1,2-5.9,2-5.9h0c.3,0,.3-.1.4-.1h0ZM171.5,78.8l.2-.1-.2.1h0Z" style="fill:#bbc4ca;"/><path d="M76.9,128.9c0,12.2,2.1,25,12.7,41.4h0c9.9,21,28.3,32.2,36.8,36.6h0c2.8,1.4,4.6,2.1,4.6,2.1h0c13.6,6.4,26.4,8.8,37.8,8.8h0c24,0,42.2-10.3,49.7-15.5h0c2.5-1.7,3.9-2.9,3.9-2.9h0l.1.2-.1-.2c.5-.4.9-.7,1.2-1h0c-.1.1-.3.2-.5.3h0c-.5.3-1,.6-1,.7h0c-18.6,10.9-35.8,14.3-49.8,14.3h0c-21.9,0-36.2-8.2-36.2-8.2h0c-46.6-24.4-47.2-66.7-47.2-66.8h0c0-.1.1-.2.2-.2h0c.1,0,.2,0,.2.1h0c6,11.6,13.3,15.6,16.5,16.9h0c.5.2.8.3,1.1.4h0c-13.5-17.1-17.4-31.4-17.4-42.2h0c0-14.3,6.8-22.5,6.8-22.5h0c.1-.1.2-.1.2-.1h0c.1,0,.1.1.1.2h0c-1,5.1-1.3,9.5-1.3,13.4h0c0,6.3,1,11,2,14.1h0c.5,1.7,1.1,2.9,1.4,3.7h0c-.4-3.4-.6-6.8-.6-10h0c0-31.9,18.7-51.6,22.7-55.4h0c-3,1.2-6.5,4.4-9.5,7.4h0c-3.2,3.3-5.7,6.4-5.7,6.4h0q-.1.1-.2.1h0c-.1,0-.1-.1-.1-.2h0c0-2.5,1.5-5.7,2.3-7.3h0c-2.4,2.2-4.4,5.6-5.8,8.6h0c-1.6,3.3-2.4,6.1-2.4,6.1h0v.1c-4.9,5.6-8.2,11.4-10.2,15.9h0c-2,4.4-2.8,7.5-2.8,7.5h0c-.2.7-.3,1-.4,1.2h0s0,.1-.2.2h0c-.3-.1-.2-.2-.2-.3h0v-.3h0c0-.4.1-.9.1-.9h0c.1-6,2.6-12.8,3.6-15.3h0c-7.1,7.6-8.8,18-8.8,26.2h0c0,7.8,1.5,13.8,1.6,13.8h0c0,4.9,1,10.9,1.9,15.7h0c.9,4.8,1.9,8.4,1.9,8.4h0c.3.9.4,1.4.4,1.6h0v.1h0c0,.1-.1.1-.2.1h0c-.3-.1-.2-.2-.4-.3h0c-.1-.1-.2-.3-.3-.5h0c-.2-.3-.4-.7-.4-.7h0c-5-7.6-7.4-20.2-7.9-23.3h0c-.2.4-.2.9-.2,1.5h0Z" style="fill:#bbc4ca;"/><path d="M234,75s-22.7-30.5-65.3-30.5h-1.1c-.2,0-.4.1-.5.4,0,.3.2.4.5.5,0,0,5.9,4.5,9.6,9.1l.1.1.1-.1s1-.5,2.8-1,4.3-1,7.3-1c4,0,8.7.8,13.7,3.6-2.1,1-12.8,6.4-15,12.5v.1l.1.1s10.8,9.8,32.9,9.8c3.5,0,7.3-.2,11.5-.8,0,0,.9-.1,1.9-.4.9-.3,2-.7,2-1.7-.2-.1-.3-.4-.6-.7Z" style="fill:#0064b1;"/><path d="M188.1,117.7c-.1-.1-.2-.1-.3,0s-.1.2,0,.3c0,0,.3.3.7.8,1.2,1.7,3.7,6,3.7,13.2,0,5.1-1.2,11.7-5,19.9,0-1.4-.2-4.2-.8-7.2-.8-4.1-2.3-8.6-5.6-9.6h-.2l-.1.1-2,18v.1l7.3,26.9-14.3,11.5c-.1,0-.1.1-.1.2s.1.1.1.2c0,0,5.6,1.8,15,1.8,5,0,11.1-.5,18.1-2,0,0,1.7-.4,2.3-2.1,0,0,1.6-7.4,1.6-17.9.1-15.5-3.4-38.1-20.4-54.2Z" style="fill:#0064b1;"/><path d="M211.6,190.3c-.3-.2-.4-.6-.4-1.1h0c0-.2,0-.5.1-.8h0s.6-2.1,1.1-5.8h0c.6-3.7,1.1-8.9,1.1-15h0c0-16.2-3.9-38.9-22-56.5h0s-.1-.1-.3-.2h0c-.1-.1-.3-.2-.3-.5h0c0-.1.1-.2.2-.2h.2c.2,0,.4,0,.8.1h0s4.8,1.5,8.2,5.3h0c-.1-.9-.4-2.6-1-4.8h0c-.9-3.2-2.6-7.2-5.6-10.7h0l-.4-.4h0c-.2-.3-.4-.4-.4-.7h0s0-.1.1-.2h0q.1-.1.2-.1h0c.2,0,.4.2.9.5h0c1.1.5,46.5,22.5,48.1,66.9h0v.7h0c0,1.1-.2,3.2-1.6,4.5h0c-.4.6-11.2,13.9-27,19.1h0s-.5.2-1,.2h0c-.4,0-.7-.1-1-.3h0ZM191.3,110.4h0Z" style="fill:#0064b1;"/><path d="M245.6,157.7c-.9-36.6-35.4-61.6-52.6-71.8h0c-5.7-3.4-9.5-5.1-9.5-5.2h0l-.8-.4h1c6.1,0,9.9,3.7,11,5h0c0-2.2-.9-4.7-.9-4.7h0l-.2-.4.4.2c4.9,1.9,11.2,2.5,17.4,2.5h0c6,0,11.9-.6,16.2-1.2h0c4.4-.6,7.2-1.2,7.3-1.2h.6c2.5,0,3.3,1.4,3.4,1.6h0c5.9,6.5,13.1,21.7,14.3,39.8h0c.2,2.3.2,4.5.2,6.6h0c0,13.7-2.8,24.2-5,28.6h0c-.8,1.5-1.3,2.3-2,2.4h0c-.6,0-.7-.6-.8-1.8h0" style="fill:#0064b1;"/><path d="M146.1,39.4l.1-.1h0c-.5.1-9.8,2.9-12.6,17.1,0,0,0,.3.1,0,.8-1.4,3.8-5.8,6.4-4.5v-.3c.3-1.2,1.1-6.1,6-12.2Z" style="fill:#061922;"/><path d="M139,167.9c-2-4.1-15-32.3-15-32.3-4,1.3-9-2-9-2h0c6.4,16.9,21.4,31.7,23.8,34.4h0c.4.4.4.3.4.3,0-.1-.1-.2-.2-.4Z" style="fill:#061922;"/><path d="M126.2,75.8c-11.7,26.7,14.6,37.7,15,37.9h0l-1.4-6.2-.8-3.5c-.7-.2-1.3-.5-1.9-.7-.2-.1-.4-.2-.6-.3-.2-.1-.5-.2-.7-.4-11.5-6.1-10.4-20.7-9.7-25.5v-.1c0-.1,0-.3.1-.4.1-.4.1-.8.2-.9v-.1h0c0-.3-.2.1-.2.2Z" style="fill:#061922;"/><path d="M143.5,151l-1.9-33.6,11.3,37.4c0,.1-3.7-8.8-9.4-3.8Z" style="fill:#bbc4ca;"/><path d="M152.8,85.4l-8.7-31.7v.7l2.5,20.1s.1.3.1.7c0,1.1-.7,2.6-6-3-.3-.3-.4-.4-.4-.4,5.5,11.2,12.5,13.6,12.5,13.6Z" style="fill:#bbc4ca;"/><path d="M132.2,91.1c-.7-1.7-1-3.2-1-4.5,0-4.9,3.6-7.6,3.6-7.6l.1-.1c0,.1-.2-3.1.1-8.1-2.9,4.2-9,14.3-1.7,22.2-.1-.2-.2-.3-.3-.5-.4-.5-.6-1-.8-1.4Z" style="fill:#bbc4ca;"/><path d="M139.8,95.2c-1.2-2.2-4.4-9.1-4.9-16.2v-.1l-.1.1s-3.6,2.8-3.6,7.6c0,1.3.3,2.9,1,4.5.2.4.5.8.8,1.4.1.1.2.3.3.5s.3.3.5.5c1.2,1.3,3.3,2.7,6.7,2.9,0,0-.3-.4-.7-1.2Z" style="fill:#061922;"/><path d="M150.3,155.3s-5.5-1.4-5.2,10.1h0c0-.3.1-.6.3-1,1.7-3.8,3.2-5.3,4.6-5.4,1.2,0,2.1,1.1,2.8,2.6s1.3,3.5,1.8,5.4c.4,1.6.7,3.2.9,4.5.1.8.2,1.8.2,3.1v.1h0c.2-1.2,2.7-17.2-5.4-19.4Z" style="fill:#bbc4ca;"/><path d="M155.7,174.8v-.1c-.1-1.3-.1-2.3-.2-3.1-.2-1.3-.5-2.9-.9-4.5-.5-2-1-3.9-1.8-5.4-.7-1.5-1.6-2.5-2.8-2.6-1.4,0-2.9,1.6-4.6,5.4-.1.3-.2.7-.3,1h0l2.8,6s1.6-16.2,7.8,3.3h0Z" style="fill:#061922;"/></svg>