<?xml version="1.0" encoding="UTF-8"?><svg id="a" xmlns="http://www.w3.org/2000/svg" width="288" height="288" viewBox="0 0 288 288">
<title>Minnesota Timberwolves logo - Brandlogos.net</title><g id="b"><circle cx="144" cy="144" r="144" style="fill:#009845;"/><circle cx="144" cy="144" r="134.9" style="fill:#fff;"/><circle cx="144" cy="144" r="125.9" style="fill:#1a428a;"/><path d="M210.3,79.5c-.2,5.4-1.8,11.5-4.9,19.7,9.8,10.5,12.7,19.3,5.7,32.6-3.1-.4-7.2,1.2-11.3,4.5,9.9,9.8,18.5,19.3,25.6,28l6.3-11.3h0l16,28.8-9-1.1,9.5,15.6c7.9-15.7,12.3-33.4,12.3-52.2s4.1-48.3-50.3-64.5h0Z" style="fill:#bbc4c7;"/><path d="M47.7,173.4c-6.4-3.8-11.5-9.3-15-15.1,6.4-2.1,12.3-4.6,17.8-7.4,4.1-19.8,12.7-40.2,25.7-58.8-19.2-7.4-40.9,4-46.8,30.8-2.2,10.1-4.8,35.1,5.6,62.5,4.8-4,9.2-8.2,12.7-12Z" style="fill:#bbc4c7;"/><path d="M136.2,48.4c10,6,22.5,9.8,35.8,13.2,5.9-6.1,11.2-11.5,14.9-14.6,5.3-1.3,11.2-.3,14.6,3.8,5,6.1,8.1,20.2,8.2,20.9,15.6,5.1,29.9,11.9,40.2,23.6-9.1-19.8-23.6-36.6-41.6-48.5-19.6-12.7-46.4-11.3-72.2,1.6h0Z" style="fill:#bbc4c7;"/><path d="M80.3,85.7c2.1-4.1,4.7-9.4,7.8-16.4-11.5-12.8-18.4-13.4-20.1-13.7-11.8,10.1-21.5,22.5-28.5,36.6,10.2-9,25.3-13,40.8-6.5h0Z" style="fill:#bbc4c7;"/><path d="M129.6,43.8c16.6-8.5,33.6-12.5,49-11.2-26.8-8.3-49.4-4.5-57.2-3-.7,4.8,3.3,10.1,8.2,14.2h0Z" style="fill:#bbc4c7;"/><path d="M122.8,47.6c-4.9-4.6-8.6-10.5-8.8-16.3-14.6,3.9-28.2,10.5-39.9,19.4,6.6,1.2,14.8,2.6,29.2,4.9,17.5-6.9,19.2-7.8,19.5-7.9h0Z" style="fill:#bbc4c7;"/><path d="M194.7,141.5c-20.5,25.5-3.1,50.4-7.2,82.9l12.8-21.1-7.9.9,13.6-24.4h0l9.2,16.5,9.6-15.7-9,1.1,5.9-10.6c-7.4-9.3-16.7-19.4-26.9-29.6h0Z" style="fill:#bbc4c7;"/><path d="M105.6,79.5c-8,4.7-13.1,7.8-16.9,10.8,5.9,4.2,10.5,9.8,14.3,16.4,14.3-13,19.2-10.4,35.1-13.4-7.8-5.7-10.2-8.2-32.6-13.8h0Z" style="fill:#bbc4c7;"/><path d="M119.5,65.9c13.2,15,17.1,17,25.4,23,6.7-6.1,14.2-13.9,21.3-21.2-13.3-3.6-26-7.9-36.5-14.8-2.6,2.2-4.5,4.9-10.2,13h0Z" style="fill:#bbc4c7;"/><path d="M104.6,72.4c5.6,1.5,10,2.7,16.6,4.7-3.3-3.8-6.8-7.6-10-10.9,2.6-3.6,5.3-7.2,8.2-10.8-5.9,2.2-10.8,4.2-15.8,6.4-5.7-1.4-11.5-2.5-17.5-3.5,4.2,3.7,6.9,6.3,10.3,9.8-2.5,4.1-5,8.7-7.7,14.1,5.5-3.6,10.5-6.7,15.9-9.8h0Z" style="fill:#009845;"/><path d="M83,149.5c-11.7,6.6-24.8,10.5-39.1,11.8,8.5,8.6,23.2,10.4,35.1,5.3-3.4-.9-7-2.5-8.9-4,6.2-2.9,10.8-7.9,12.9-13.1h0Z" style="fill:#bbc4c7;"/><path d="M205.4,113.4c-7.9,0-15.4,8.2-20.9,8.2s-4.3-2.3-4.4-5.3c-.4-8.3,15.4-22.6,18.3-41.7.2-1.4,1.2-1.5,1.7,0,1.3,3.9,1.6,12.3.6,20.5,4.9-12.1,5.3-21.5.7-29.6-.9.8-1.9,1.7-2.7,2.3-11.4-2.4-15.5-1.5-19-5.8-24,25.1-29.9,29.5-39.3,48.6-.4-2.8-.8-5.9-1.4-7.6-.7-2-1.8-2.6-5.2-2.6-5.5,0-13.6,1.4-18,4.8-4.8,3.7-9.6,11.3-12.2,27.6,14.3.2,20.1-.5,26-3.6-4.7,9.4-14.1,19.3-29.5,28.1,3.2,1.4,8.4,2.2,12.7,1.9-13,14-16.2,29.8-8.7,49.3,1.2-8.3,3.9-15.1,7.7-19.4,1.2,20.5,11.7,27.2,24.1,48.9,1.7-6,2.5-12.7,2.4-19.1,10.9,13.2,16.4,24.2,18.7,37.5,9.6-10.2,15.3-25.5,15.6-39.2,2.6,3.3,4.6,7.4,5.6,11.4,7.9-27.1-3.9-43,.3-65.9-1.6-1.8-7.2.6-13.8,8,9.3-28.9,35.8-48.9,42.9-45.6,3-6.4,2.3-11.8-2.3-11.8h0Z" style="fill:#fff;"/><path d="M200.6,60.3c-.9-3.1-2.1-5.3-3.5-6.5-1.8-1.5-4.8-2.2-7.6-1.6-1.3.9-4.1,3.7-7.1,6.8,3.5-.3,6.6-1.3,10.6-1.3s5.9.8,7.5,2.6Z" style="fill:#009845;"/><path d="M206.1,109.8c-.5-2.4-2-4.5-3.8-5.4.1,1.3,0,3.4-.6,5.3,1.7-.3,3.2-.3,4.4,0h0Z" style="fill:#fff;"/><path d="M192.6,104.5c.6,2.8.8,5.8.5,8.3,2-1,3.8-1.7,5.5-2.2-1.3-2.8-3.5-5.1-5.9-6.1h0Z" style="fill:#fff;"/><path d="M133.5,107c-4.9-.2-9.4.7-12.2,2.6-2.9,2.1-5.7,6.6-7.4,12.4,4.4-1.2,9.9-3.3,13.1-5.8,2.3-3.3,4.5-6.5,6.4-9.2Z" style="fill:#009845;"/><path d="M136,198.6c0,4.2-.5,10.2-1.3,15.1-9.4-15.6-16.2-25-12.4-40.9-3,1.7-6.4,5.4-8.7,9.2,0-11.4,4.3-20.3,11.8-28.6-2,.3-5.2.3-7.7,0,9.5-9,11.8-16.4,11.9-24.3h0c-4.7,9.4-14.1,19.3-29.5,28.1,3.2,1.4,8.4,2.2,12.7,1.9-13,14-16.2,29.8-8.7,49.3,1.2-8.3,3.9-15.1,7.7-19.4,1.2,20.5,11.7,27.2,24.1,48.9,1.7-6,2.5-12.7,2.4-19.1,10.9,13.2,16.4,24.2,18.7,37.5,3.3-19-1.3-32.9-20.9-57.9h0Z" style="fill:#bbc4c7;"/><path d="M82.9,95.6c-.3.5-16.5,21.5-24.2,50.5,16.6-10.5,28.5-23.7,38.5-33.9-6.2-11.8-14.3-16.5-14.4-16.5h0Z" style="fill:#bbc4c7;"/></g></svg>