<?xml version="1.0" encoding="UTF-8"?><svg id="Layer_1" xmlns="http://www.w3.org/2000/svg" viewBox="0 0 210.04 156.78"><defs><style>.cls-1{fill:#d81f33;}.cls-2{fill:#fff;}.cls-3{fill:#8c734b;}.cls-4{fill:#0e153d;}</style></defs><path class="cls-3" d="M209.02,59.95l.64.26v-11.86c0-1.86-.32-3.72-.96-5.52-.64-1.82-1.57-3.53-2.76-5.11-1.07-1.41-2.32-2.69-3.72-3.79-1.24-.97-2.59-1.8-4-2.46-.92-.6-2.73-1.47-7.6-3.4-4.13-1.64-10.86-4.13-19.47-6.69-7.91-2.36-18.05-4.95-29.34-6.85,0,0,0,0,0,0-.07-.1-7.64-9.55-19.05-4.67-.39.17-.76.35-1.15.54-1.7.83-3.18,1.55-6.07.78-1.71-.46-3.87-1.5-2.98-5.31.2-.85.87-1.99,1.91-2.59.72-.42,1.51-.51,2.33-.27,1.53.45,2.17,1.27,1.95,2.52-.08.48-.45.95-.88,1.13-.46.19-.98.09-1.57-.31-.55-.37-1.29-.23-1.67.32-.37.55-.23,1.29.32,1.67,1.26.86,2.63,1.05,3.85.54,1.18-.5,2.09-1.64,2.31-2.92.17-.93.39-4.07-3.64-5.25-1.46-.42-2.92-.25-4.22.5-1.46.85-2.65,2.47-3.04,4.12-.01.05-.02.09-.03.14-.5-.69-.96-1.19-1.22-1.45l-3.94-4-3.94,4c-.25.26-.71.76-1.21,1.45-.01-.05-.02-.09-.03-.14-.39-1.65-1.58-3.27-3.04-4.12-1.29-.76-2.75-.93-4.22-.5-4.03,1.18-3.81,4.31-3.64,5.25.23,1.28,1.14,2.43,2.31,2.92,1.22.51,2.59.32,3.85-.54.55-.37.69-1.12.32-1.67-.37-.55-1.12-.69-1.67-.32-.59.4-1.11.5-1.57.31-.43-.18-.79-.65-.88-1.13-.22-1.25.41-2.08,1.95-2.52.83-.24,1.61-.15,2.33.27,1.04.61,1.71,1.74,1.91,2.59.89,3.81-1.27,4.85-2.98,5.31-2.9.77-4.37.05-6.07-.78-.38-.19-.76-.37-1.14-.54-11.41-4.88-18.98,4.57-19.05,4.67-.02.02-.03.05-.04.07-10.85,1.84-20.62,4.31-28.28,6.56-14.71,4.31-26.53,9.69-27.03,9.92l-1.56.71v.27c-.68.11-1.37.33-2.07.65-2.52,1.17-5.02,2.39-7.44,3.62l-1.84.94v6.46c0,1.55.31,2.83.93,3.88.12.22.26.42.4.62v7.14c-.82,1.57-1.25,3.21-1.25,4.78s.44,2.95,1.25,4.04v14.89l.16.43c.12.34,2.49,6.67,9.54,9.24l-.2.1s3.72,6.04,9.51,7.29l-1.11.46s4.08,6.59,11.99,7.98l-1.17.57s5.1,5.49,13.03,6.51c8.4,26.16,32.98,45.16,61.92,45.16s53.52-19,61.92-45.16c7.93-1.02,13.03-6.51,13.03-6.51l-1.17-.57c7.91-1.39,11.99-7.98,11.99-7.98l-1.11-.46c5.79-1.25,9.51-7.29,9.51-7.29l.37-.49c6.6-2.81,10.46-9.25,10.46-15.33v-7.6c0-1.85-.43-3.73-1.03-5.44M137.69,13.88c-4.67-.69-9.5-1.25-14.43-1.62.14-.07.28-.14.43-.2,6.42-2.75,11.34-.26,14,1.82M86.36,12.06c.15.06.3.14.45.21-4.95.38-9.8.96-14.48,1.66,2.67-2.08,7.63-4.61,14.03-1.87"/><path class="cls-4" d="M203.53,54.88l3.48,1.4v-7.94c0-1.57-.27-3.12-.81-4.64-.56-1.57-1.35-3.04-2.38-4.39-.94-1.24-2.03-2.35-3.25-3.3-1.14-.89-2.37-1.64-3.67-2.23-.68-.49-2.49-1.36-7.28-3.26-4.08-1.62-10.73-4.08-19.25-6.62-14.03-4.18-35.15-9.13-57.16-9.44-.52-1.53-1.77-2.67-3.43-3.05-.2-2.88-2.27-5.13-2.7-5.56l-2.05-2.09-2.05,2.09c-.43.44-2.5,2.68-2.7,5.56-1.65.38-2.91,1.52-3.43,3.04-21.66.38-42.37,5.19-56.17,9.23-14.69,4.31-26.67,9.78-26.67,9.78v1.62s-.19-.13-.3-.18c-.4-.2-.85-.3-1.33-.3-.61,0-1.28.16-1.98.49-2.46,1.14-4.93,2.35-7.35,3.57l-.4.2v4.84c0,1.07.19,1.91.57,2.56.21.36.46.67.76.92v8.84c-.81,1.34-1.25,2.79-1.25,4.09s.44,2.35,1.25,3v15.47s2.32,6.43,9.68,8.14c.17.05.36.08.53.12.01,0,.03,0,.04,0,1.16.26,2.43.38,3.82.28h0c-1.31.64-2.61,1.29-3.9,1.96.02.08,3.88,6.43,13.21,5.51-1.55.73-3.1,1.48-4.64,2.25.02.09,4.48,6.33,14.3,6.16-2.26,1.14-3.63,1.87-3.62,1.87,0,.04,4.43,4.31,11.87,4.84,7.7,25.69,31.53,44.41,59.75,44.41s52.05-18.73,59.75-44.41c7.44-.52,11.86-4.8,11.87-4.84,0,0-1.36-.73-3.62-1.87,9.82.16,14.28-6.07,14.3-6.16-1.54-.77-3.09-1.52-4.64-2.25,9.32.92,13.18-5.43,13.2-5.51-1.3-.67-2.6-1.32-3.9-1.96,3.18.23,5.76-.64,7.75-1.83,4.97-2.69,7.67-7.86,7.67-12.32v-7.6c0-4.87-3.87-10.5-3.87-10.5"/><path class="cls-1" d="M146.54,115.03c1.17.89,2.34,1.78,3.5,2.68.02-.12-13.87,3.8-23.75-.55-.36-.16-.71-.34-1.06-.52-2.45,8.86-10.58,15.39-20.21,15.39s-17.77-6.53-20.22-15.38c-.35.18-.69.36-1.05.52-9.88,4.35-23.77.43-23.75.55,1.16-.9,2.33-1.8,3.5-2.68-4.83.7-9.25-.17-12.35-1.13,8.7,21.17,29.54,36.09,53.87,36.09s45.16-14.91,53.87-36.09c-3.1.96-7.52,1.83-12.35,1.13"/><path class="cls-2" d="M99.23,20.5c-1.06-.53-1.87-1.44-2.3-2.55-34.93.91-69.73,13.44-69.66,13.9-1.52.57-2.34,1.89-2.34,2.76v1.24c24.06-9.33,49.15-14.26,74.31-14.88v-.47Z"/><path class="cls-2" d="M184.96,32.72c.08-.5-36.48-13.88-71.84-14.77-.43,1.1-1.24,2.01-2.29,2.54v.48c25.91.72,51.75,6,76.47,15.76v-1.24c0-.87-.82-2.19-2.33-2.77"/><path class="cls-1" d="M108.85,14.18c-2.26-.27-2.64,2.94-2.7,4.03h-.72c.01-3.07,1.48-4.3,1.48-6.36s-1.89-3.97-1.89-3.97c0,0-1.89,1.91-1.89,3.97s1.46,3.29,1.47,6.36h-.72c-.06-1.09-.43-4.31-2.7-4.03-2.45.29-2.18,3.68,0,3.95,0,0-.41-1.5.8-1.5.88,0,1.12,1.03,1.18,1.59h-1.07v1.18h2.35c-.33,1.13-1.08,1.47-1.08,1.47,0,0,.32.65,1.03.73,0,0,0,.8.62,1.41.62-.62.62-1.41.62-1.41.71-.09,1.03-.73,1.03-.73,0,0-.76-.34-1.09-1.47h2.35v-1.18h-1.06c.06-.56.3-1.59,1.18-1.59,1.21,0,.8,1.5.8,1.5,2.18-.27,2.44-3.65,0-3.95"/><path class="cls-2" d="M97.67,37.67v-7.54c0-1.05-.19-1.96-.57-2.74-.38-.77-.91-1.4-1.58-1.88-.67-.48-1.46-.83-2.36-1.03-.91-.2-1.89-.27-2.94-.2-1.05.07-2.03.27-2.94.59-.9.32-1.7.77-2.38,1.34-.68.57-1.21,1.27-1.59,2.09-.38.82-.57,1.76-.57,2.81v7.55c-.8.2-1.41.93-1.41,1.74s.61,1.41,1.41,1.45v8.46c0,1.05.19,1.95.57,2.69.38.75.92,1.36,1.59,1.82.68.46,1.47.78,2.38.96.91.18,1.89.23,2.94.16,1.05-.07,2.03-.25,2.94-.55.91-.3,1.7-.72,2.36-1.27.67-.55,1.19-1.23,1.58-2.03.38-.8.57-1.72.57-2.77v-8.45c.84-.12,1.49-.81,1.49-1.65s-.65-1.5-1.49-1.56M93.5,49.34c0,.55-.1,1.02-.3,1.4-.2.38-.46.7-.77.95-.31.25-.66.44-1.04.58-.38.14-.77.21-1.17.24-.4.03-.8,0-1.19-.09-.4-.08-.75-.23-1.06-.44-.31-.21-.57-.49-.76-.85-.2-.35-.3-.81-.3-1.36v-18.87c0-.55.1-1.02.3-1.41.2-.39.45-.71.76-.97.31-.26.67-.46,1.06-.6.4-.14.79-.22,1.19-.25.4-.03.79,0,1.17.09.38.09.73.24,1.04.46.31.22.56.51.77.87.2.36.3.82.3,1.37v18.87Z"/><path class="cls-2" d="M17.66,58c0,.08-.02.1-.06.06-.04-.04-.07-.08-.1-.12-.11-.33-5.08-16.82-5.34-17.56-.27-.76-.4-1.17-.4-1.22-.08-.24-.2-.4-.36-.48-.16-.08-.4-.05-.71.1-1.49.69-2.97,1.4-4.45,2.13v1.37c0,.47.06.82.19,1.04.13.22.29.38.47.45.18.1.4.15.67.13v12.59c-.72.48-1.26,1.41-1.26,2.2s.54,1.18,1.26.98v17.74c1.16-.56,2.31-1.1,3.48-1.64v-22.26c0-.16.01-.24.04-.23.03.02.05.04.08.09,0,.03.13.42.39,1.16.26.73,5.12,16.93,5.18,17.06.13.41.27.74.42.98.15.24.39.29.74.14.78-.33,1.55-.65,2.33-.97.32-.13.56-.33.72-.63.16-.28.24-.56.24-.84v-16.68c.66-.46,1.14-1.27,1.14-2.01s-.48-1.17-1.14-1.09v-12.33c.03-.26.07-.46.14-.59.07-.14.16-.28.26-.44.21-.25.43-.57.64-.96.22-.39.32-.82.32-1.29v-1.2c-1.64.66-3.27,1.34-4.9,2.04v22.27Z"/><path class="cls-2" d="M182.47,58.3c0,.09-.02.09-.06.02-.04-.07-.07-.14-.1-.2-.11-.4-.33-1.2-.65-2.39-.32-1.2-.7-2.58-1.12-4.15-.42-1.57-.87-3.22-1.34-4.95-.48-1.72-.92-3.31-1.32-4.76-.41-1.45-.75-2.66-1.02-3.64-.27-.97-.41-1.49-.41-1.54-.08-.3-.2-.56-.37-.77-.16-.21-.41-.36-.74-.47-1.54-.51-3.09-1-4.64-1.48v1.37c0,.47.07.87.2,1.2.14.33.3.61.5.84.19.25.42.48.7.67v9.79c-.75-.09-1.32.39-1.32,1.18s.57,1.63,1.32,2v14.37c1.21.38,2.41.77,3.61,1.17v-19.73c0-.17.02-.23.04-.19.03.04.05.09.08.15,0,.03.14.52.41,1.48.27.96.61,2.16,1.03,3.59.41,1.44.85,3,1.33,4.68.47,1.68.92,3.27,1.34,4.76.42,1.49.78,2.76,1.08,3.82.3,1.06.47,1.67.53,1.83.13.52.28.96.42,1.31.15.36.4.6.75.73.79.29,1.57.59,2.35.88.32.13.57.11.73-.05.16-.16.24-.37.24-.65v-13.3c.66.06,1.14-.36,1.14-1.1s-.48-1.55-1.14-2v-9.54c.03-.24.07-.4.14-.48.07-.08.15-.16.26-.23.21-.08.43-.23.65-.45.21-.22.32-.56.32-1.03v-1.2c-1.64-.64-3.29-1.25-4.94-1.85v20.32Z"/><path class="cls-2" d="M203.06,61.42c-.5-1.1-1.11-2.17-1.85-3.21-.61-.87-1.29-1.7-2.01-2.53.03-.11.06-.24.06-.38,0-.9-.7-1.95-1.55-2.33-.37-.17-.71-.18-.98-.07-.13-.14-.26-.29-.39-.43-.74-.84-1.37-1.62-1.87-2.34-.51-.72-.76-1.35-.76-1.9v-6.57c0-.3.1-.53.28-.69.19-.15.43-.25.72-.29.29-.04.6-.03.92.03.32.06.62.15.91.28.27.12.57.29.9.51.33.22.63.47.91.75.28.28.51.59.69.92.19.33.28.67.28,1v1.53c0,.66.23,1.32.67,1.97.45.65,1,1.13,1.66,1.45.59.28,1.18.57,1.77.86v-3.07c0-1.05-.17-2.05-.51-3-.34-.95-.82-1.83-1.43-2.63-.62-.81-1.34-1.53-2.17-2.18-.83-.64-1.74-1.19-2.72-1.63-.98-.44-1.88-.72-2.71-.84-.82-.12-1.55-.05-2.16.2-.61.25-1.1.7-1.44,1.35-.35.64-.53,1.52-.53,2.62v5.41c0,1.16.25,2.25.75,3.27.49,1.02,1.12,1.99,1.87,2.91.73.9,1.51,1.79,2.36,2.66-.09.16-.14.36-.14.6,0,.9.7,1.93,1.56,2.31.48.21.9.17,1.19-.05.68.8,1.25,1.61,1.7,2.43.49.87.73,1.76.73,2.68v7.76c0,.36-.1.63-.3.83-.2.2-.46.33-.77.39-.32.06-.66.07-1.03.03-.37-.04-.73-.14-1.07-.3-.34-.15-.7-.37-1.07-.64-.37-.28-.71-.58-1.01-.9-.31-.33-.56-.67-.76-1.03-.2-.36-.3-.72-.3-1.08v-1.78c0-.63-.18-1.2-.54-1.7-.36-.5-.9-.9-1.62-1.2-.65-.27-1.29-.53-1.93-.8v3.1c0,1.05.19,2.04.58,2.99.39.95.91,1.81,1.57,2.59.65.78,1.42,1.49,2.3,2.12.88.63,1.81,1.16,2.79,1.6.98.44,1.91.74,2.77.89.87.15,1.63.14,2.29-.06.65-.2,1.18-.59,1.58-1.19.39-.59.59-1.41.59-2.46v-7.43c0-1.1-.25-2.2-.75-3.3"/><path class="cls-2" d="M63.21,43.54c-.17,1.47-.33,2.91-.5,4.31-.17,1.42-.32,2.67-.46,3.78-.14,1.11-.25,1.99-.34,2.67-.08.68-.14,1.02-.17,1.03-.33-1.95-.64-3.69-.9-5.24-.27-1.55-.56-3.27-.88-5.18-.32-1.91-.65-3.79-.99-5.63-.33-1.85-.65-3.56-.94-5.14-.3-1.57-.55-2.82-.78-3.74-.06-.29-.31-.49-.77-.57-.46-.09-.93-.08-1.4.03-.42.1-.86.27-1.32.53-.46.26-.73.58-.81.96-.22.96-.48,2.3-.77,4.01-.29,1.71-.6,3.57-.94,5.57-.33,2-.66,4.03-.98,6.1-.32,2.07-.61,3.94-.87,5.62-.26,1.68-.56,3.59-.89,5.71-.03,0-.09-.3-.19-.94-.1-.64-.2-1.48-.33-2.52-.13-1.04-.27-2.23-.43-3.57-.17-1.34-.33-2.7-.5-4.09-.39-3.26-1.73-15.02-1.73-15.01-1.69.47-3.37.96-5.05,1.46v1.24c0,.47.1.83.29,1.07.19.24.4.4.62.47.14.07.26.16.37.26.11.11.19.26.25.47.4,3.33.76,6.4,1.1,9.23-.59.41-1,1.11-1,1.79,0,.81.59,1.3,1.36,1.2,0,.06.01.12.02.17.19,1.58.38,3.11.56,4.6.18,1.5.34,2.83.49,4.02.15,1.19.27,2.15.37,2.89.1.75.15,1.15.15,1.2.03.21.12.4.27.57.15.16.37.21.64.13,1.56-.43,3.13-.84,4.7-1.23.3-.08.54-.22.7-.43.17-.21.32-.51.46-.9,1.18-7.01,2.36-14.01,3.55-21,1.16,6.45,2.31,12.92,3.47,19.39.14.33.29.56.46.69.17.13.4.16.71.1,1.57-.32,3.13-.63,4.71-.91.28-.05.5-.2.65-.43.15-.24.25-.47.27-.69,0-.06.05-.48.15-1.27.09-.79.22-1.81.38-3.07.15-1.25.32-2.67.5-4.25.18-1.57.37-3.19.57-4.86,0-.06.01-.12.02-.18.78-.26,1.38-1.02,1.38-1.83,0-.67-.42-1.18-1.02-1.32.35-2.99.72-6.23,1.13-9.74.05-.23.14-.42.25-.58.11-.15.24-.3.38-.43.22-.17.44-.43.63-.76.19-.34.3-.74.3-1.21v-1.24c-1.72.27-3.43.57-5.14.88,0,0-1.38,12.36-1.77,15.8"/><path class="cls-2" d="M166.95,47.88c0-.81-.59-1.64-1.36-1.98-.19-1.15-.39-2.29-.58-3.41-.26-1.56-.5-2.97-.7-4.23-.21-1.25-.38-2.29-.52-3.1-.14-.81-.21-1.27-.21-1.38-.05-.51-.27-1.01-.66-1.48-.38-.48-.9-.8-1.54-.97-1.86-.48-3.72-.94-5.58-1.37v.95c0,1.18.35,2,1.04,2.44.14.09.21.22.21.4s-.01.38-.05.59c0,.03-.06.35-.19.99-.12.63-.29,1.46-.5,2.49s-.44,2.19-.69,3.5c-.12.63-.25,1.27-.37,1.92-.89-.19-1.61.37-1.61,1.25,0,.68.42,1.35,1.02,1.73-.79,4.02-2.69,13.84-2.69,13.84,1.33.28,2.66.58,3.99.89,0,0,1.15-6.71,1.18-6.84.06-.54.31-.75.75-.65,1.58.39,3.17.79,4.74,1.21.25.06.46.17.62.33.17.16.27.41.33.75,0,.14.93,7.37.93,7.37,1.39.39,2.78.8,4.17,1.22,0,0-1.71-10.23-2.56-15.3.5-.14.83-.56.83-1.17M162.76,51.06c-.11.11-.27.14-.46.09-1.3-.34-2.61-.68-3.91-1-.17-.04-.31-.13-.42-.29-.11-.15-.15-.32-.13-.51,0-.03.03-.25.1-.68.07-.43.16-.97.27-1.64.11-.66.24-1.41.38-2.25.14-.83.29-1.68.46-2.55.41-2.3.83-4.59,1.25-6.89.03,0,.06.02.09.02.42,2.51.83,5.02,1.25,7.53.17.95.32,1.88.46,2.79.14.9.26,1.72.37,2.43.11.72.21,1.31.29,1.78.08.46.12.71.12.73.03.18-.01.32-.12.42"/><path class="cls-2" d="M116.29,52.18c-.14-.09-.26-.17-.36-.25-.1-.07-.15-.25-.15-.52v-7.08c0-1.02-.15-1.96-.47-2.8-.31-.84-.79-1.51-1.45-2.01-.31-.31-.34-.59-.09-.83.6-.44,1.08-1.02,1.45-1.74.37-.71.55-1.51.55-2.39v-3.27c0-1.02-.13-1.96-.38-2.81-.26-.85-.66-1.59-1.21-2.22-.55-.63-1.25-1.13-2.11-1.51-.85-.37-1.89-.57-3.11-.6-2.93-.05-5.85-.04-8.78.02v1.2c0,.58.1,1.02.32,1.32.21.3.43.52.66.65.11.06.21.14.3.26.09.12.13.3.13.52v9.47c-.75.17-1.32.83-1.32,1.61s.57,1.41,1.32,1.56v14.34c1.39-.01,2.78-.01,4.18,0v-13.63c0-.39.18-.58.56-.58.88,0,1.76.02,2.64.04.91.02,1.57.3,1.98.85.41.55.62,1.31.62,2.27v9.11c0,.61.18,1.1.54,1.49.35.38.9.59,1.64.62,1.18.05,2.36.1,3.54.16v-1.61c0-.5-.11-.85-.32-1.07-.22-.22-.43-.4-.66-.55M111.56,34.41c0,.97-.21,1.73-.62,2.3-.41.57-1.07.84-1.98.83-.9-.01-1.79-.02-2.68-.03-.12,0-.23-.04-.34-.13-.12-.08-.17-.19-.17-.33v-8.86c0-.39.23-.58.68-.58.84,0,1.67.02,2.51.03.91.01,1.57.31,1.98.89.41.58.62,1.35.62,2.31v3.56Z"/><path class="cls-2" d="M129.59,44.3c-.42.15-.64.54-.64,1.17,0,.17.04,7.17-.06,7.31-.1.14-.25.2-.45.18-1.24-.13-2.49-.25-3.74-.36-.2-.02-.34-.11-.43-.28-.08-.17-.13-.37-.13-.59-.01-7.59-.03-15.18-.04-22.77,0-.3.04-.51.11-.61.07-.1.18-.19.32-.26.23-.15.45-.36.68-.64.23-.29.34-.66.34-1.13v-1.24c-2.36-.22-4.73-.4-7.1-.54v1.24c0,.47.11.86.34,1.18.23.32.45.57.68.74.14.09.25.2.34.31.09.12.13.33.13.63v9.42c-.76.09-1.34.71-1.34,1.5s.58,1.48,1.34,1.68v14.34c3.75.25,7.48.59,11.22,1.03.28.03.56.07.85.1.23.03.45-.04.68-.2.23-.17.34-.42.34-.75v-11.35c-.59-.07-1.19-.14-1.78-.22-.62-.07-1.23-.05-1.66.1"/><path class="cls-2" d="M37.29,34.64c-.06,0-.14.01-.2.04-.02,0-.05.01-.08.02h0c-4.34,1.38-8.65,2.9-12.92,4.56v1.2c0,.55.07.95.22,1.2.15.25.36.39.63.42.14.03.26.09.36.19.11.1.16.27.16.52v9.38c-.73.42-1.28,1.29-1.28,2.08s.55,1.23,1.28,1.1v14.34c.35-.13.7-.27,1.05-.39,1.85-.69,3.7-1.36,5.56-2,.79-.28,1.59-.54,2.38-.81.6-.2,1.2-.4,1.8-.59.25-.08.49-.16.74-.24.03,0,.05-.02.08-.03.1-.03.2-.09.3-.15.14-.1.27-.21.38-.35.21-.26.31-.54.31-.85v-4.26h0c0-1.5,0-3,0-4.5-.58.18-1.15.36-1.73.54-.6.2-1.19.49-1.6.82-.41.33-.61.81-.61,1.45,0,.17.04,4.52-.06,4.7-.1.18-.24.31-.43.37-.52.18-1.04.35-1.56.53-.72.25-1.43.5-2.15.75-.33.12-.49-.02-.49-.41v-9.64c0-.39.2-.65.61-.8,1.63-.58,3.26-1.14,4.9-1.68.41-.14.61-.39.61-.78v-2.32c0-.22-.08-.35-.23-.4-.15-.05-.29-.05-.43,0-1.62.54-3.24,1.09-4.86,1.66-.41.14-.61.03-.61-.36v-8.65c0-.17.06-.33.18-.5.12-.17.25-.27.39-.32,1.3-.46,2.6-.91,3.91-1.35.06.02.11.05.15.1.09.12.06,4.5.06,4.66,0,.63.2.98.61,1.04.41.06,1-.04,1.6-.24.57-.18,1.15-.37,1.73-.55v-4.5h0v-4.39c0-.22-.1-.4-.29-.53-.13-.09-.3-.12-.5-.1"/><path class="cls-2" d="M148.44,28.41c-.07-.03-.14-.06-.21-.07-.03,0-.05-.01-.08-.02h0c-4.44-.87-8.9-1.6-13.37-2.21v1.2c0,.55.07.99.23,1.31.16.32.37.57.66.75.14.1.27.23.38.39.11.15.17.35.17.6v9.38c-.76.04-1.34.62-1.34,1.4s.57,1.52,1.34,1.77v14.34c.36.06.73.11,1.1.16,1.93.28,3.85.59,5.77.92.82.14,1.64.29,2.45.44.62.12,1.23.23,1.85.35.25.05.51.1.76.15.03,0,.05,0,.08.02.1.02.2.02.3,0,.15-.02.28-.06.4-.15.21-.15.31-.38.31-.68v-8.76c-.59-.12-1.18-.23-1.76-.35-.62-.12-1.22-.14-1.64-.02-.42.12-.63.49-.63,1.13,0,.17.04,4.54-.06,4.68-.1.13-.24.18-.44.15-.54-.1-1.07-.19-1.61-.28-.74-.13-1.48-.25-2.23-.37-.34-.06-.51-.28-.51-.66v-9.64c0-.38.21-.55.63-.48,1.69.27,3.37.57,5.06.88.42.08.63-.07.63-.46v-2.31c0-.22-.08-.4-.23-.52-.15-.13-.3-.2-.44-.23-1.67-.31-3.34-.6-5.01-.87-.42-.07-.63-.3-.63-.68v-8.65c0-.17.06-.3.19-.41.12-.11.26-.14.4-.12,1.35.22,2.69.45,4.04.69.06.05.11.1.15.17.1.17.06,4.53.06,4.69,0,.64.21,1.09.63,1.36.42.27,1.03.48,1.64.6.59.11,1.17.22,1.76.35v-8.89c0-.22-.1-.45-.29-.68-.14-.16-.31-.28-.51-.36"/><path class="cls-2" d="M71.08,122.7l2.95,2.84c.51.49,1.14,1.14,1,2.05-.07.4-.29.83-.64,1.19-.44.46-.89.63-1.27.67-.85.1-1.45-.43-2.07-1.03l-1.67-1.61-1.74,1.8-1.18-1.13,4.61-4.78ZM70.19,125.97l1.48,1.42c.39.37.92.87,1.53.24.25-.26.32-.51.31-.72-.03-.3-.2-.47-.7-.95l-1.35-1.3-1.26,1.31Z"/><polygon class="cls-2" points="78.93 129.59 84.23 132.76 83.62 133.78 79.74 131.46 78.97 132.74 82.72 134.99 82.12 135.99 78.37 133.75 77.55 135.11 81.59 137.53 80.98 138.54 75.52 135.27 78.93 129.59"/><polygon class="cls-2" points="88.18 134.49 89.76 135.01 88.04 140.14 91.53 141.3 91.14 142.46 86.08 140.77 88.18 134.49"/><rect class="cls-2" x="94.3" y="139.53" width="6.63" height="1.66" transform="translate(-55.85 215.72) rotate(-81.34)"/><path class="cls-2" d="M111.33,141.76c-.11.42-.24.9-.8,1.47-.52.51-1.37,1.1-3.06,1.17-2.36.1-4.04-1.06-4.14-3.38-.11-2.49,1.84-3.59,3.93-3.68.76-.03,2.95.05,3.89,1.9l-1.81.3c-.19-.28-.74-1.04-2.03-.99-1.5.06-2.31,1.14-2.26,2.41.06,1.44,1.23,2.26,2.49,2.21,1.44-.06,1.84-.92,2.04-1.34l1.74-.08Z"/><path class="cls-2" d="M117.22,135.97l1.72-.51,4.95,5.45-1.78.53-.89-1.04-3.26.96-.19,1.36-1.74.51,1.19-7.26ZM118.81,137.63c-.07-.07-.13-.15-.18-.22-.05-.07-.09-.15-.13-.24,0,.09,0,.17,0,.24-.01.09-.02.18-.03.27l-.34,2.4,2.23-.66-1.56-1.8Z"/><path class="cls-2" d="M125.37,133.03l1.42-.85,4.69,1.5c.57.19.69.24,1.31.47-.37-.51-.46-.66-.76-1.14l-1.74-2.91,1.36-.81,3.4,5.69-1.41.84-4.74-1.52c-.51-.17-.71-.24-1.27-.46.3.41.36.51.63.94l1.88,3.13-1.36.81-3.4-5.69Z"/><path class="cls-2" d="M139.02,129.03c.83.31,1.68-.17,2.33-.8.29-.28,1.16-1.21.59-1.79-.33-.34-.74-.1-1.05.1-.23.15-1.36.95-1.62,1.12-.52.34-1.83,1.21-2.87.13-.23-.24-.4-.55-.47-.86-.22-1.03.49-2.05,1.25-2.78.7-.67,1.33-1.09,2.08-1.29.74-.21,1.29-.06,1.54,0l-.86,1.38c-.11-.03-.38-.12-.8.02-.47.15-.9.52-1.13.75-.53.51-.97,1.13-.53,1.58.3.31.65.12,1.09-.14.23-.15,1.36-.93,1.63-1.1.65-.44,1.79-1.14,2.8-.1,1.49,1.53-.29,3.35-.89,3.93-.78.76-2.12,1.79-3.91,1.18l.81-1.34Z"/><path class="cls-2" d="M97.37,97.26s-23.77-7.95-13.44-33.24c0,0-25.13,1.04-59.57,14.93,0,0-2.42,1-3.83,1.51-1.41.5-3.68,1.4-6.92-.15,0,0,31.5-16.46,71.98-20.27,5.34-.5,6.04.3,4.63,2.31-1.16,1.65-15.61,20.02,7.15,34.91"/><path class="cls-3" d="M76.25,71.19c-20.37,2.64-40.28,9.73-40.28,9.73,3.39,6.03,12.59,3.5,12.59,3.5,17.25-4.88,24.95-6.53,27.42-7.01-.1-1.92-.01-3.99.27-6.22"/><path class="cls-3" d="M76.4,81.09c-3.4.66-17.66,3.58-32.04,8.96,0,0,4.53,5.16,13.53,2.61,7.57-2.14,17.27-5.24,20.16-6.16-.72-1.63-1.29-3.43-1.65-5.41"/><path class="cls-3" d="M79.56,89.36c-3.07.99-18.44,5.96-24.92,8.45,0,0,3.72,4.99,14.46.76,7.49-2.94,11.61-4.66,13.43-5.44-1.08-1.12-2.08-2.38-2.96-3.78"/><path class="cls-3" d="M84.9,95.3c-2.68,1.17-12.66,5.52-18.42,8.29,0,0,7.26,3.56,16.39-2.07l5.68-3.72c-1.24-.72-2.47-1.55-3.64-2.5"/><path class="cls-3" d="M91.3,99.25c-1.82,1.14-9.39,5.89-13.08,8.62,0,0,6.27,2.59,12.7-3.46,2.09-1.97,3.23-3.08,3.86-3.72-1.11-.4-2.28-.87-3.48-1.44"/><path class="cls-2" d="M112.67,97.26s23.77-7.95,13.44-33.24c0,0,25.13,1.04,59.57,14.93,0,0,2.42,1,3.83,1.51,1.41.5,3.67,1.4,6.92-.15,0,0-31.51-16.46-71.98-20.27-5.34-.5-6.04.3-4.63,2.31,1.16,1.65,15.61,20.02-7.15,34.91"/><path class="cls-3" d="M133.79,71.19c20.37,2.64,40.28,9.73,40.28,9.73-3.39,6.03-12.59,3.5-12.59,3.5-17.25-4.88-24.95-6.53-27.42-7.01.1-1.92.01-3.99-.27-6.22"/><path class="cls-3" d="M133.64,81.09c3.4.66,17.66,3.58,32.04,8.96,0,0-4.53,5.16-13.53,2.61-7.57-2.14-17.27-5.24-20.16-6.16.72-1.63,1.28-3.43,1.65-5.41"/><path class="cls-3" d="M130.48,89.36c3.07.99,18.44,5.96,24.92,8.45,0,0-3.72,4.99-14.46.76-7.48-2.94-11.61-4.66-13.42-5.44,1.08-1.12,2.08-2.38,2.96-3.78"/><path class="cls-3" d="M125.14,95.3c2.68,1.17,12.66,5.52,18.42,8.29,0,0-7.26,3.56-16.39-2.07l-5.68-3.72c1.24-.72,2.47-1.55,3.64-2.5"/><path class="cls-3" d="M118.74,99.25c1.83,1.14,9.39,5.89,13.08,8.62,0,0-6.27,2.59-12.7-3.46-2.09-1.97-3.23-3.08-3.86-3.72,1.11-.4,2.28-.87,3.48-1.44"/><path class="cls-2" d="M124.48,111.07c0,10.74-8.71,19.45-19.46,19.45s-19.46-8.7-19.46-19.45,8.71-19.45,19.46-19.45,19.46,8.71,19.46,19.45"/><path class="cls-3" d="M120.46,115.09c0,8.52-6.91,15.43-15.44,15.43s-15.44-6.9-15.44-15.43,6.91-15.42,15.44-15.42,15.44,6.91,15.44,15.42"/><path class="cls-4" d="M105.02,90.11c-11.57,0-20.97,9.4-20.97,20.96s9.41,20.96,20.97,20.96,20.98-9.4,20.98-20.96-9.41-20.96-20.98-20.96M122.65,107.69c-1.3,5.19-4.85,9.43-9.46,11.77.37-2.56,1.48-5.1,2.65-7.73,1.68-3.82,3.52-7.99,2.72-12.42,2.04,2.34,3.49,5.21,4.09,8.38M95.81,95.68c2.34-1.4,5.04-2.29,7.91-2.5v28.2c-1.44-.1-2.82-.37-4.15-.78-.15-3.49-1.59-6.75-2.99-9.92-2.33-5.27-4.33-9.86-.77-15M99.41,123.26c1.39.38,2.83.62,4.31.71v4.98c-2.35-.17-4.58-.79-6.59-1.78.96-.91,1.99-2.24,2.28-3.91M106.32,123.97c1.48-.09,2.93-.33,4.31-.71.29,1.67,1.32,3,2.28,3.91-2.02.99-4.24,1.61-6.6,1.78v-4.98ZM110.48,120.57c-1.33.43-2.73.71-4.16.81v-28.2c2.88.21,5.56,1.09,7.91,2.5,3.56,5.14,1.56,9.73-.77,15-1.4,3.16-2.83,6.41-2.98,9.89M91.49,99.3c-.81,4.43,1.03,8.6,2.72,12.42,1.17,2.65,2.29,5.21,2.65,7.79-4.63-2.31-8.15-6.54-9.46-11.84.61-3.16,2.05-6.03,4.09-8.37M87.35,114.2c2.26,3.67,5.6,6.53,9.56,8.19-.02.12-.02.24-.04.36-.2,1.34-1.31,2.43-2.09,3.04-3.84-2.67-6.58-6.8-7.43-11.58M115.26,125.78c-.78-.61-1.89-1.7-2.09-3.03-.02-.12-.03-.24-.04-.35,3.96-1.66,7.3-4.51,9.55-8.18-.85,4.77-3.59,8.9-7.42,11.57"/><path class="cls-4" d="M111.25,62.9s-.16.66-.56.66-2.92-1.21-4.13-1.86c-.52-.28-1.24-.7-1.49-.85,0,0-1.08.57-1.59.85-1.21.65-3.73,1.86-4.13,1.86s-.56-.66-.56-.66c0,0-6.61,3.99-6.61,15,0,8.2,4.27,11.92,4.27,11.92l.58,2.32h15.98l.58-2.32s4.27-3.72,4.27-11.92c0-11.01-6.61-15-6.61-15"/><path class="cls-2" d="M114.4,75.11c0-3.4-1.39-6.18-2.88-7.83,0,0-.05.97-1.68-.12-1.41-.96-3.06-1.53-4.83-1.53s-3.44.57-4.85,1.53c-1.57,1.07-1.65.11-1.65.11-1.49,1.65-2.88,4.42-2.88,7.83,0,2.82.69,4.22.93,4.62,1.4,3.6,4.65,6.12,8.44,6.12s6.96-2.47,8.39-6.01c.08-.12,1-1.47,1-4.73"/><path class="cls-4" d="M108.55,82.8s-.02-.04-.03-.06c0,0-.93-1.74.6-2.95,0,0,3.46.72,3.54-3.86,0,0-.08-.48.4-1.45,0,0-.89-.81-2.82.64-1.93,1.45-2.98,5.55-4.02,4.58-1.03-.96-.66-6.3-1.19-6.5h-.02c-.53.2-.16,5.54-1.19,6.5-1.04.96-2.09-3.14-4.02-4.58-1.93-1.45-2.82-.64-2.82-.64.48.96.4,1.45.4,1.45.08,4.59,3.54,3.86,3.54,3.86,1.53,1.21.61,2.96.61,2.96,0,.02-.02.04-.03.06-4.13-4.43-6.53-3.83-5.35,1.13,1.16,4.87,5.63,25.81,6.34,30.66-.1,4.37-.6,5.93-.74,6.26l-.45.9.5,1c.78,1.14,1.33,2.42,1.52,2.91l1.7,4.32,1.69-4.31c.2-.5.75-1.78,1.53-2.92l.52-.95-.47-.95c-.13-.33-.62-1.83-.73-6.04.59-4.36,5.16-25.93,6.34-30.89,1.18-4.96-1.21-5.57-5.34-1.14"/><path class="cls-1" d="M102.22,104.63c-1.48-7.79-2.65-13.55-3.6-17.73-.72-3.19,1.2-1.92,2.24.08l1.36,17.65Z"/><path class="cls-1" d="M107.82,104.63c1.49-7.79,2.65-13.55,3.59-17.73.72-3.19-1.2-1.92-2.24.08l-1.36,17.65Z"/><path class="cls-1" d="M99.88,78.24c-.29-.08-.46-.38-.38-.68.03-.11.1-.2.19-.27-.19-.22-.42-.44-.69-.63,0,0-.48,2.25,1.53,2.01,0,0-.07-.2-.22-.49-.12.07-.27.1-.42.06"/><path class="cls-1" d="M111.05,76.66c-.27.19-.5.42-.7.63.09.07.16.16.19.28.08.29-.09.59-.39.67-.15.04-.3.02-.42-.06-.15.28-.22.48-.22.48,2.01.24,1.53-2.01,1.53-2.01"/><path class="cls-1" d="M105.96,107.52c.64-12.04,1.6-20.56,1.6-21.62,0-.38-.05-.87-.2-1.4l-.7,2.29-.21-4.04c-.35-.45-.83-.91-1.44-1.34h-.04c-.6.44-1.03.89-1.38,1.34l-.21,4.05-.7-2.29c-.16.54-.2,1.02-.2,1.41,0,1.06.96,9.59,1.6,21.62.64,12.03-.85,14.27-.85,14.27.87,1.25,1.8,3.48,1.8,3.48,0,0,.94-2.23,1.8-3.48,0,0-1.49-2.24-.86-14.27"/></svg>