<?xml version="1.0" encoding="UTF-8"?><svg id="uuid-82ea3be2-d3aa-496e-934c-ceeb1a0fd7f1" xmlns="http://www.w3.org/2000/svg" viewBox="0 0 78.94 96.71">
<title>Golden State Warriors 2010-2019 logo - Brandlogos.net</title><g id="uuid-4bba5c16-b85b-437c-a2a9-edc15fa7f2d7"><g id="uuid-7406db80-bd9b-49f7-b2fe-ca51714cd503"><g id="uuid-f90d8000-8348-46c5-a011-91e25398c051"><path id="uuid-5a117e42-302e-4c9d-8368-2470a8700157" d="M9.58,78.83l-5.32,2.68c-.29.12-.46.21-.5.27-.14.17-.11.39.09.68l-.15.17-2.3-2.06.15-.17c.27.17.49.16.66-.04.05-.05.13-.25.27-.6l2.66-7.11c.14-.35.2-.61.2-.78,0-.16-.06-.33-.19-.5l.16-.17,2.49,2.22-.15.16c-.27-.14-.46-.14-.61.02-.07.08-.14.22-.22.42l-1.96,5.05,4.93-2.44c.21-.11.34-.18.39-.23.15-.16.12-.37-.08-.63l.16-.17,2.59,2.33-.15.17c-.3-.15-.52-.14-.66.02-.06.06-.12.19-.2.4l-1.92,5.09,4.74-2.46c.24-.12.4-.23.48-.32.14-.16.1-.37-.1-.64l.14-.17,2.46,2.2-.15.16c-.22-.1-.39-.15-.53-.13-.14,0-.38.11-.73.29l-6.77,3.45c-.32.16-.52.28-.59.37-.16.17-.13.39.08.65l-.14.17-2.34-2.08.15-.17c.28.18.51.18.69-.02.05-.07.14-.27.25-.61l2.04-5.46" style="fill:#1a64b7;"/></g><g id="uuid-d696d3f6-2f3e-4de5-a774-5bdafb459577"><path id="uuid-7c1ab6d7-464d-4e77-bee4-09706b68e7c9" d="M6.56,85.09l2.22,1.98.06-.06c-.1-.14-.16-.28-.16-.41,0-.11.04-.21.11-.29.09-.1.29-.22.61-.39l6.77-3.44c.36-.18.6-.29.75-.31.03,0,.06,0,.08,0,.13,0,.28.04.45.12l.06-.07-2.34-2.1-.06.07c.11.15.17.29.17.42,0,.1-.04.19-.1.27-.09.11-.26.21-.5.33l-4.91,2.55,1.99-5.27c.08-.21.15-.34.21-.41.09-.11.21-.16.35-.16.11,0,.23.03.35.09l.06-.07-2.48-2.22-.06.06c.09.13.14.26.14.38,0,.11-.04.2-.11.28-.07.07-.19.15-.41.26l-5.11,2.52,2.04-5.22c.08-.21.16-.35.25-.44.08-.11.19-.16.32-.16.1,0,.21.03.32.09l.06-.07-2.37-2.12-.06.07c.11.16.17.33.17.5,0,.19-.07.45-.2.81l-2.67,7.11c-.14.35-.22.55-.29.63-.1.11-.23.18-.37.18-.11,0-.21-.04-.33-.1l-.06.07,2.2,1.96.05-.07c-.09-.16-.15-.3-.15-.45,0-.11.05-.21.11-.29.08-.08.24-.16.52-.29l5.32-2.67.17-.09-2.11,5.64c-.12.35-.2.55-.27.64-.11.11-.23.18-.36.18-.12,0-.24-.04-.36-.11l-.06.06ZM6.36,85.1l.05-.06.19-.22.06.04c.12.08.24.12.33.12s.17-.04.25-.12c.05-.04.14-.25.25-.59l1.97-5.28-5.15,2.59c-.28.12-.45.22-.48.25-.05.05-.07.11-.07.18,0,.11.05.24.17.41l.03.04-.04.04-.21.22-2.4-2.16.05-.05.19-.21.06.03c.11.07.22.1.31.1.1,0,.17-.04.26-.13.02-.03.13-.23.26-.58l2.67-7.11c.12-.35.19-.61.19-.75s-.05-.3-.18-.46l-.04-.05.04-.04.2-.23,2.6,2.32-.05.05-.18.21-.06-.03c-.11-.07-.22-.09-.3-.09-.09,0-.15.02-.21.09-.06.07-.14.2-.21.39l-1.9,4.87,4.76-2.35c.21-.1.34-.18.36-.22.06-.05.07-.12.07-.18,0-.09-.04-.2-.15-.35l-.03-.04.04-.05.19-.22,2.72,2.42-.06.05-.19.22-.04-.03c-.13-.07-.25-.1-.34-.1-.1,0-.17.04-.23.1-.04.04-.1.17-.18.38l-1.86,4.9,4.56-2.37c.23-.12.39-.22.46-.3.04-.05.05-.1.06-.17,0-.09-.05-.22-.17-.37l-.04-.06.04-.05.2-.22,2.57,2.29-.05.06-.19.2-.05-.02c-.18-.09-.34-.13-.44-.13-.01,0-.04,0-.06,0-.11.01-.36.11-.71.28l-6.76,3.45c-.32.16-.52.29-.57.35-.06.06-.08.12-.08.19,0,.09.05.22.17.37l.04.05-.05.05-.2.23-2.44-2.19" style="fill:#1a64b7;"/></g><g id="uuid-0126a35d-0762-4bbb-90c1-d5100c56408b"><path id="uuid-e17fda76-c649-49c5-8d69-9022df739f12" d="M19.35,88.74l.1-3.75-2.92,2.38,2.82,1.38ZM19.31,90.18l-3.91-1.91-1.18.93c-.16.12-.26.24-.31.34-.08.18-.01.38.24.59l-.11.2-2.84-1.4.09-.2c.19.05.35.05.47,0,.13-.03.3-.15.54-.34l6.41-5.07c.2-.16.33-.31.39-.43.09-.2.04-.39-.16-.6l.1-.2,3.06,1.49-.11.2c-.27-.05-.46.02-.54.19-.06.12-.09.28-.09.47l.03,8.25c0,.35.04.6.09.75.05.15.16.3.33.41l-.1.2-3.17-1.55.1-.21c.3.09.5.03.61-.19.05-.08.06-.23.06-.46v-1.5" style="fill:#1a64b7;"/></g><g id="uuid-dd6029c2-ba43-4824-9c54-e7ec88f0d0af"><path id="uuid-f5aa6f9b-3b93-4e5e-a769-a4e591abc767" d="M16.67,87.34l2.6,1.28.1-3.48-2.71,2.2ZM19.35,88.74l.03-.07-.03.07ZM16.39,87.37l3.13-2.55-.1,3.91v.12s-3.03-1.48-3.03-1.48ZM18.64,92.49l3.03,1.49.04-.08c-.14-.12-.24-.26-.3-.41-.06-.17-.08-.43-.08-.78l-.03-8.22s0-.02,0-.02c0-.21.02-.37.09-.51.07-.17.24-.25.45-.25.05,0,.11,0,.09.06l.07-.14-2.91-1.43-.05.09c.12.13.18.28.18.42,0,.08-.02.15-.04.22-.08.15-.21.3-.42.46l-6.41,5.06c-.24.2-.41.31-.56.36-.07.02-.15.03-.22.03-.07,0-.16,0-.23-.03l-.05.08,2.72,1.33.04-.09c-.16-.14-.24-.29-.25-.45,0-.07.02-.13.04-.19.06-.11.17-.23.34-.37l1.25-.93,3.91,1.91-.03.07h.07v1.5c0,.23-.02.38-.08.49-.08.17-.24.27-.44.27-.06,0-.13,0-.2-.03l-.03.08ZM18.44,92.56l.03-.06.13-.26.05.02c.1.02.16.04.23.04.15,0,.24-.06.31-.18.03-.07.05-.21.05-.43v-1.46l-3.79-1.9-1.17.93c-.16.12-.25.23-.3.31-.02.04-.03.08-.03.12,0,.1.07.24.25.38l.05.04-.03.05-.14.27-2.99-1.46.04-.07.13-.25.06.02c.08.02.17.04.25.04.06,0,.13,0,.18-.02.11-.04.28-.15.52-.34l6.41-5.07c.2-.15.32-.3.38-.4.03-.05.04-.1.04-.15,0-.11-.06-.23-.19-.36l-.04-.05.02-.04.12-.27,3.2,1.56-.03.07-.19.24c-.06,0-.11-.02-.15-.02-.18,0-.27.06-.32.17-.05.1-.08.25-.08.44h-.04.04s.03,8.25.03,8.25c0,.35.03.59.08.73.05.14.14.26.3.37l.04.04-.03.06-.13.27-3.3-1.62" style="fill:#1a64b7;"/></g><g id="uuid-e26afe1f-8bb9-45bd-8b4b-669a6d7451d9"><path id="uuid-a5bf27a1-c651-4c1c-8c5c-f1096a0cce74" d="M26.5,89.52l3.16.66c.47.1.79.15,1,.16.2.02.39,0,.56-.06.39-.11.64-.42.74-.9.1-.5,0-.87-.31-1.12-.15-.13-.31-.22-.49-.29-.18-.06-.5-.15-.98-.24l-3.17-.67-.51,2.47ZM26.17,91.06l-.64,3.12c-.04.13-.02.24.03.33.05.09.15.17.3.25l-.05.22-2.93-.62.05-.22c.18,0,.3-.05.38-.1.08-.06.14-.16.17-.3l1.66-7.95c.03-.13.02-.25-.03-.34-.04-.08-.15-.17-.3-.25l.04-.21,5.87,1.23c.71.15,1.28.31,1.68.48.4.17.74.39,1.01.66.31.31.52.7.61,1.14.09.43.09.87-.01,1.32-.31,1.53-1.35,2.25-3.11,2.15l1.28,2.97c.23.52.39.86.52,1.02.12.16.29.28.51.33l-.06.22-3.39-.7.04-.22c.24.01.38-.05.4-.17.02-.09-.05-.3-.2-.67l-1.32-3.16-2.51-.52" style="fill:#1a64b7;"/></g><g id="uuid-c8684afb-adbc-4dd9-91a1-f95ff79ec3bb"><path id="uuid-5ab33775-20d9-4903-a2b9-accecc8a0ca7" d="M29.68,90.1c.46.1.8.16.99.17.04,0,.07,0,.11,0,.15,0,.29-.03.42-.07.36-.11.58-.38.69-.85.02-.11.03-.23.03-.32,0-.31-.11-.55-.32-.72-.15-.13-.3-.22-.46-.28-.17-.06-.5-.15-.98-.23l-3.09-.65-.49,2.31,3.09.64ZM30.66,90.41c-.21-.01-.55-.07-1.02-.17l-3.16-.66-.08-.02.54-2.61,3.24.68c.48.1.81.18.99.25.19.07.36.17.51.3.25.21.37.49.37.84,0,.11,0,.23-.03.36-.11.5-.37.84-.79.97-.15.04-.32.06-.47.06h-.12M26.16,91.13v-.07s0,.07,0,.07ZM29.84,95.75l3.25.67v-.07c-.18-.06-.34-.18-.45-.34-.14-.18-.31-.52-.53-1.04l-1.33-3.08h.11c.11.01.2.01.3.01,1.56,0,2.44-.69,2.75-2.1.05-.23.07-.46.07-.68,0-.21-.02-.41-.06-.61-.09-.43-.29-.8-.58-1.11-.26-.26-.59-.47-.99-.64-.4-.17-.95-.33-1.66-.48l-5.83-1.22-.04.07c.16.09.28.18.33.28.03.08.05.15.05.24,0,.06,0,.11,0,.16l-1.67,7.95c-.03.15-.09.26-.2.34-.1.08-.24.11-.35.06l-.03.15,2.81.59.04-.07c-.15-.08-.27-.16-.34-.28-.04-.07-.05-.15-.05-.24,0-.05.01-.1.02-.15l.65-3.11.02-.07,2.63.58,1.32,3.16c.13.32.21.54.21.66v.05c-.04.17-.21.24-.42.23v.09ZM29.66,95.86v-.07s.14-.28.14-.28h.06c.19,0,.26-.05.27-.1v-.02c0-.08-.06-.29-.2-.61l-1.27-3.12-2.43-.51-.64,3.05s-.01.08-.01.11c0,.07.01.12.04.17.04.06.13.14.31.29l-.06.3-3.07-.65v-.07s.13-.28.13-.28c.17,0,.28-.04.34-.09.06-.05.1-.13.14-.25l1.66-7.95s0-.1,0-.13c0-.07,0-.12-.03-.16-.03-.07-.12-.14-.32-.3l.07-.29,5.94,1.24c.72.15,1.27.31,1.69.48.41.18.76.41,1.03.69.32.32.53.72.63,1.17.04.21.06.42.06.64,0,.23-.03.47-.07.71-.3,1.48-1.29,2.23-2.89,2.22h-.18l1.23,2.87c.22.51.4.86.52,1.01.11.16.26.25.45.3l.07.02v.07s-.08.29-.08.29l-3.54-.73" style="fill:#1a64b7;"/></g><g id="uuid-5d1a8a76-34f2-40c0-876e-24eb95956c04"><path id="uuid-3723a8c7-f8c8-4325-9bb6-9547a9e36942" d="M37.75,91.12l3.23-.13c.48-.01.82-.05,1-.08.21-.04.38-.1.54-.2.35-.21.52-.56.5-1.06-.02-.5-.21-.84-.57-1.02-.18-.08-.35-.13-.55-.15-.19-.02-.53-.02-1.01,0l-3.23.12.1,2.52ZM37.81,92.69l.13,3.18c0,.14.04.25.11.32.07.07.19.12.35.16v.23s-2.98.11-2.98.11v-.23c.16-.06.27-.12.34-.2.06-.07.09-.18.08-.33l-.32-8.11c0-.15-.04-.25-.11-.33-.07-.07-.19-.13-.36-.17v-.22s5.99-.24,5.99-.24c.73-.03,1.31-.02,1.74.06.43.07.8.2,1.13.39.38.23.67.55.87.96.19.39.29.82.31,1.28.06,1.56-.77,2.51-2.5,2.84l1.97,2.58c.34.45.59.74.75.87.15.13.34.19.57.2v.22l-3.45.13v-.21c.22-.05.33-.14.33-.27,0-.08-.13-.28-.36-.6l-2.05-2.75-2.56.1" style="fill:#1a64b7;"/></g><g id="uuid-6f8df29f-e13b-4e40-b053-11851c340843"><path id="uuid-cdfe817f-1329-4688-bf34-9fb2b842b4c5" d="M40.89,88.55l-3.16.05.1,2.44,3.15-.13c.48-.02.81-.05,1-.08.18-.03.35-.09.51-.18.3-.19.45-.47.45-.92v-.08c-.02-.48-.2-.79-.53-.95-.17-.08-.34-.13-.52-.15-.09-.01-.22-.02-.38-.02-.18,0-.38,0-.62.02M37.75,91.12h-.07l-.03-2.59,3.23-.13c.25-.01.45-.01.63-.01.16,0,.3,0,.39.01.19.02.39.08.57.17.39.19.6.56.62,1.09v.08c0,.48-.18.84-.53,1.04-.16.1-.35.18-.56.21-.2.03-.54.06-1.01.08l-3.24.12v-.07ZM42.7,95.94h0s0,0,0,0M35.42,96.63l2.92-.04.05-.16c-.18-.03-.3-.09-.39-.18-.09-.09-.14-.22-.14-.38l-.12-3.18h.07v-.08l2.62-.06,2.05,2.74c.22.29.33.47.34.65h.03c0,.19-.16.29-.34.26l-.07.15,3.39-.06.07-.15c-.24,0-.45-.08-.62-.21-.16-.14-.41-.43-.77-.88l-2.03-2.67.12-.02c1.64-.33,2.43-1.18,2.44-2.62,0-.05,0-.1,0-.16-.02-.45-.11-.87-.3-1.25-.19-.4-.48-.7-.83-.93-.32-.19-.69-.32-1.11-.39-.31-.05-.68-.07-1.14-.07-.19,0-.39.01-.6.02l-5.93.16-.04.16c.18.04.3.1.4.18.08.09.13.22.13.38l.32,8.12v.02c0,.13-.03.25-.1.34-.07.09-.2.17-.33.15l-.07.15ZM35.39,96.41c.16-.05.27-.12.31-.17.05-.05.08-.13.08-.25,0,0,0-.02,0-.03l-.32-8.11c0-.13-.04-.23-.09-.27-.06-.06-.17-.12-.38-.22l.06-.3,5.99-.24c.21,0,.41,0,.6,0,.45,0,.83.02,1.15.07.44.07.83.2,1.17.41.39.23.69.57.9.99.19.41.29.85.31,1.32,0,.05,0,.11,0,.16,0,1.46-.83,2.4-2.45,2.74l1.9,2.48c.35.45.6.74.74.85.15.12.31.18.6.26l-.07.31-3.54.06.05-.3c.23-.05.29-.12.29-.19,0,0,0,0,0,0,0-.05-.11-.25-.34-.55l-1.99-2.71-2.48.1.12,3.1c0,.13.04.22.1.28.05.06.15.11.37.21l-.06.31-3.08.04.05-.3" style="fill:#1a64b7;"/></g><g id="uuid-7c2e42b7-8a90-41a9-8851-fecd2bfa14cf"><path id="uuid-ba77325d-04ce-4cd2-8c6a-98504bd4b319" d="M48,94.88l-1.75-7.93c-.03-.14-.09-.24-.17-.29-.08-.06-.21-.1-.39-.11l-.04-.22,2.92-.64.05.22c-.15.08-.26.16-.31.25-.04.09-.05.21-.02.35l1.75,7.92c.02.15.09.24.17.31.08.06.21.09.37.1l.05.22-2.93.64-.05-.22c.16-.07.26-.17.31-.26.04-.09.05-.2.02-.34" style="fill:#1a64b7;"/></g><g id="uuid-29717735-7ce8-4feb-81e8-23056ec2684b"><path id="uuid-9079ae27-af31-4e1b-a030-0a20011ca827" d="M48.09,95.04c0,.08-.01.16-.05.22-.06.11-.17.2-.29.2l.03.14,2.8-.62v-.08c-.17,0-.31-.04-.41-.11-.1-.08-.17-.2-.2-.35l-1.74-7.93c-.02-.06-.03-.12-.03-.17,0-.08.02-.16.05-.23.06-.11.18-.2.3-.2l-.04-.14-2.8.61v.08c.18.01.32.04.41.12.1.08.17.19.2.33l1.75,7.94-.08.02.08-.02c.01.06.02.12.02.17M47.65,95.72v-.31c.14-.07.23-.16.27-.22.02-.04.03-.1.03-.16,0-.04,0-.09,0-.14l-1.75-7.94c-.03-.12-.08-.2-.13-.24-.07-.04-.18-.08-.42-.15l-.06-.3,3.07-.68.02.07v.3c-.14.07-.23.15-.27.22-.02.04-.03.09-.03.15,0,.04,0,.08.01.13l1.75,7.93c.03.13.08.21.15.26.06.05.17.09.4.15l.07.29-3.07.68-.02-.07" style="fill:#1a64b7;"/></g><g id="uuid-8ab0d7cd-cd61-4a86-b390-02587c2f5852"><path id="uuid-89125a7f-64a7-4863-8f72-69e4ec101985" d="M54.77,85.09c-.85.36-1.44.91-1.78,1.64-.41.87-.41,1.79-.01,2.75.41.96,1.07,1.58,1.99,1.89.77.26,1.58.2,2.43-.16.85-.36,1.45-.9,1.79-1.65.2-.44.31-.91.3-1.42,0-.44-.1-.87-.27-1.29-.42-.99-1.09-1.64-2-1.93-.78-.24-1.59-.2-2.44.16M54.12,83.6c1.53-.66,2.93-.76,4.2-.32,1.32.47,2.27,1.38,2.86,2.76.36.85.47,1.73.32,2.67-.28,1.81-1.45,3.15-3.47,4.02-1.52.65-2.92.74-4.17.3-.68-.24-1.27-.61-1.78-1.12-.46-.46-.81-.99-1.07-1.59-.38-.88-.49-1.78-.35-2.71.27-1.76,1.42-3.1,3.47-4" style="fill:#1a64b7;"/></g><g id="uuid-4eac4d41-571b-4262-99a5-8977c87b0271"><path id="uuid-f806237b-58b5-4c13-b88a-1275da64a78c" d="M53.05,86.77c-.21.43-.3.87-.3,1.31s.09.89.29,1.37c.4.93,1.05,1.54,1.94,1.85.32.11.64.16.97.16.46,0,.92-.11,1.42-.31.84-.36,1.42-.89,1.75-1.61.2-.42.29-.86.29-1.35v-.04c0-.44-.09-.85-.27-1.25-.42-.98-1.06-1.6-1.95-1.89-.32-.1-.64-.15-.96-.15-.47,0-.95.1-1.44.3-.83.36-1.4.89-1.75,1.61M54.93,91.44c-.93-.31-1.62-.96-2.03-1.93-.21-.48-.31-.96-.31-1.43s.11-.93.32-1.38c.35-.75.96-1.32,1.81-1.68l.04.07-.04-.07c.51-.22,1.01-.32,1.5-.32.33,0,.67.06.99.16.93.3,1.62.96,2.05,1.97.18.42.27.86.28,1.34v.02c0,.5-.1.98-.3,1.41-.35.76-.96,1.32-1.82,1.69-.51.21-1,.32-1.48.32-.35,0-.69-.06-1.02-.17M54.15,83.66c-2.03.9-3.16,2.21-3.42,3.95-.05.24-.06.5-.06.73,0,.66.14,1.31.41,1.94.25.59.6,1.12,1.05,1.57.51.5,1.09.87,1.75,1.1.5.18,1.03.27,1.58.27.79,0,1.64-.19,2.53-.57,2.03-.87,3.15-2.18,3.43-3.96.04-.27.06-.53.06-.78,0-.63-.12-1.25-.37-1.84-.58-1.36-1.52-2.26-2.83-2.72-.5-.18-1.02-.27-1.57-.27-.8,0-1.66.2-2.56.58h0ZM53.83,93.09c-.68-.24-1.29-.62-1.81-1.14-.46-.46-.82-.99-1.08-1.6-.28-.66-.42-1.32-.42-2,0-.25.02-.5.06-.76.26-1.79,1.45-3.16,3.51-4.06.92-.39,1.8-.59,2.62-.59.56,0,1.11.09,1.62.28,1.34.47,2.32,1.41,2.92,2.8.25.61.39,1.24.39,1.9,0,.26-.03.53-.06.81-.29,1.84-1.47,3.2-3.52,4.07-.92.39-1.79.59-2.6.59-.57,0-1.11-.1-1.63-.28" style="fill:#1a64b7;"/></g><g id="uuid-f4b4fb62-6d87-432b-af78-b370363df5c2"><path id="uuid-eb25cd72-dfd5-42ce-afa9-1ac26bc90a4b" d="M63.61,83.29l2.55-1.97c.38-.29.64-.51.78-.65.13-.15.25-.3.32-.47.17-.37.09-.75-.21-1.15-.31-.4-.66-.56-1.06-.5-.19.03-.37.09-.54.19-.16.1-.43.29-.82.59l-2.56,1.97,1.54,1.99ZM64.57,84.54l1.95,2.52c.08.1.18.17.27.19.1.02.23,0,.39-.07l.14.18-2.37,1.83-.14-.17c.1-.15.16-.27.16-.37.01-.1-.03-.2-.11-.32l-4.97-6.42c-.08-.12-.18-.18-.28-.21-.1,0-.23,0-.39.07l-.14-.17,4.75-3.67c.58-.45,1.07-.77,1.45-.96.39-.19.78-.31,1.16-.33.44-.03.87.06,1.26.28.38.21.72.5,1,.87.95,1.24.82,2.5-.4,3.77l3.1.96c.54.16.91.25,1.11.27.2,0,.4-.04.58-.17l.14.17-2.74,2.12-.13-.18c.16-.17.21-.31.12-.42-.05-.07-.27-.16-.64-.28l-3.27-1.05-2.02,1.56" style="fill:#1a64b7;"/></g><g id="uuid-a22c4e44-35b7-4042-bcf1-ee4bf7215dc4"><path id="uuid-9c7d52bb-a26a-4b52-b730-7c2223773eaf" d="M66,78.62c-.17.03-.35.08-.5.17-.16.09-.45.29-.82.59l-2.5,1.92,1.44,1.88,2.5-1.93c.38-.29.63-.5.76-.65.14-.14.23-.28.31-.45.04-.12.08-.24.08-.36,0-.22-.09-.46-.28-.71-.26-.32-.53-.48-.85-.48-.04,0-.1,0-.15.02M63.61,83.28l.06-.04-.06.04ZM61.97,81.28l2.61-2.03c.39-.29.67-.49.83-.59.18-.11.37-.17.56-.19.06-.02.12-.02.17-.02.37,0,.69.18.96.54.2.27.31.53.31.8,0,.15-.03.3-.09.43-.08.18-.19.35-.34.5-.14.14-.4.37-.78.66l-2.56,1.98-.07.04-1.62-2.11ZM64.97,89.08l2.25-1.73-.06-.08c-.11.04-.21.06-.29.06-.03,0-.05,0-.08,0-.12-.02-.22-.1-.31-.22l-1.95-2.53-.05-.06,2.16-1.61,3.27,1.05c.37.13.58.21.67.31.04.05.06.1.06.16,0,.1-.06.21-.14.31l.05.07,2.62-2.02-.05-.07c-.16.09-.33.13-.5.13-.01,0-.03,0-.06,0-.22,0-.58-.1-1.13-.27l-3.21-1,.08-.08c.67-.71,1-1.4,1-2.07,0-.53-.2-1.06-.61-1.59-.28-.36-.61-.65-.96-.85-.35-.19-.7-.28-1.07-.28h-.16c-.38.04-.75.14-1.13.34-.39.19-.87.5-1.45.95l-4.69,3.62.06.07c.11-.04.2-.06.29-.06.03,0,.06,0,.09,0,.13.02.23.11.33.23l4.96,6.43c.08.11.13.23.13.34v.02c0,.12-.06.23-.15.36l.06.07ZM64.89,89.25l-.17-.23.03-.05c.11-.13.15-.25.16-.31h0c0-.09-.03-.18-.11-.27l-4.95-6.43c-.09-.11-.17-.17-.24-.18-.02,0-.03,0-.06,0-.08,0-.18.02-.29.07l-.05.02-.03-.04-.18-.23,4.81-3.71c.58-.45,1.06-.77,1.47-.97.4-.2.8-.32,1.18-.34.06,0,.12,0,.18,0,.39,0,.77.09,1.13.29.39.22.74.52,1.02.89.42.55.64,1.12.64,1.69,0,.69-.32,1.39-.95,2.08l2.98.93c.54.16.91.25,1.09.26h.05c.17,0,.33-.04.48-.15l.07-.04.04.05.19.24-2.87,2.21-.04-.06-.18-.24.04-.04c.11-.11.16-.2.16-.25,0-.02-.02-.04-.03-.06-.02-.03-.24-.15-.6-.25l-3.2-1.07-1.96,1.52,1.9,2.46c.08.1.16.15.24.17,0,0,.02,0,.05,0,.07,0,.17-.02.29-.07l.05-.03.03.05.18.24-2.49,1.92-.05-.05" style="fill:#1a64b7;"/></g><g id="uuid-19ef9a43-d25b-49ae-b063-1a9ec855bc3e"><path id="uuid-f3c4926b-7bb1-471f-b16e-bc6d308cba92" d="M73.32,68.89l1.03,2.32-.21.08s-.06-.06-.08-.08c-.13-.1-.35-.1-.66,0-.98.28-1.82.86-2.52,1.73-.31.39-.54.77-.68,1.14-.11.28-.14.54-.1.79.04.25.14.44.32.58.28.23.6.21.98-.04.19-.13.56-.47,1.08-1l.79-.79c.47-.46.87-.81,1.22-1.05.35-.24.71-.41,1.08-.51.39-.1.78-.11,1.19-.01.41.08.77.27,1.1.54.53.42.85.97.99,1.64.12.6,0,1.3-.34,2.09-.25.59-.61,1.16-1.05,1.71-.79.99-1.82,1.77-3.07,2.35-.26.12-.41.21-.44.24-.04.05-.06.16-.06.32l-.21.1-1.17-2.29.2-.1s.06.04.07.06c.17.14.39.17.65.14.41-.07.88-.29,1.43-.67.56-.37,1.01-.77,1.37-1.21.39-.49.64-.97.76-1.45.06-.26.07-.51,0-.74-.06-.23-.17-.41-.33-.55-.25-.2-.53-.21-.85-.03-.23.12-.6.44-1.12.97l-.77.77c-.52.51-.89.87-1.13,1.06-.25.19-.52.35-.82.49-.44.2-.9.26-1.38.18-.43-.06-.84-.25-1.22-.56-.63-.51-.98-1.15-1.03-1.92-.08-1.01.34-2.08,1.26-3.22.38-.47.79-.88,1.22-1.21.44-.34,1.02-.71,1.79-1.11.25-.15.4-.24.43-.29.06-.07.1-.2.1-.37l.21-.09" style="fill:#1a64b7;"/></g><g id="uuid-346b9998-aae4-4130-867b-ab8a9fe4b270"><path id="uuid-9026e97a-8433-4d66-a6a0-1ea7f387078f" d="M72.58,78.77l1.12,2.17h.09c0-.19.02-.3.08-.39.05-.06.19-.13.46-.26,1.24-.58,2.25-1.35,3.05-2.33.44-.55.79-1.11,1.04-1.69.25-.58.37-1.1.37-1.57,0-.16,0-.32-.04-.48-.14-.65-.45-1.18-.96-1.59-.32-.26-.68-.43-1.08-.52-.19-.04-.37-.06-.54-.06-.2,0-.4.03-.59.08-.36.11-.72.28-1.06.51-.35.23-.76.58-1.22,1.05l-.78.79c-.53.53-.88.86-1.09,1-.21.14-.41.21-.6.21-.17,0-.33-.05-.47-.18-.19-.15-.31-.36-.34-.63-.02-.08-.02-.14-.02-.22,0-.19.04-.4.12-.6.14-.38.38-.77.7-1.16.72-.88,1.57-1.47,2.57-1.75.15-.05.29-.07.41-.07.12,0,.23.02.31.09.03.02.06.05,0,.06l.14-.06-.98-2.19h-.09c0,.18-.03.32-.11.43-.06.07-.2.15-.46.3-.76.41-1.35.77-1.78,1.09-.41.34-.82.73-1.21,1.21-.84,1.03-1.25,2-1.25,2.92,0,.07,0,.16.01.24.06.76.4,1.36,1.01,1.87.37.3.76.48,1.19.55.13.02.26.03.38.03.33,0,.64-.07.94-.21.3-.14.57-.3.81-.49.23-.18.61-.53,1.12-1.05l.77-.77c.51-.51.89-.84,1.13-.97.16-.09.32-.14.47-.14.16,0,.32.06.46.18.18.14.3.34.36.59.03.12.04.24.04.37s0,.27-.04.41c-.11.49-.37.98-.77,1.47-.37.46-.84.86-1.39,1.23-.56.38-1.04.6-1.46.67-.07,0-.14.02-.2.02-.2,0-.37-.06-.5-.16-.01,0-.03-.03,0-.04l-.13.06ZM72.38,78.7l.07-.03.29-.1s.06.05.07.06c.11.09.24.14.41.14.06,0,.12-.01.18-.01.38-.07.85-.28,1.4-.65.55-.36,1-.76,1.36-1.2.38-.48.63-.95.74-1.41.03-.13.04-.26.04-.38s-.01-.23-.04-.33c-.06-.22-.17-.38-.31-.5-.12-.1-.24-.14-.37-.14s-.26.03-.4.12c-.21.12-.59.44-1.09.95l-.78.77c-.51.52-.89.87-1.13,1.07-.25.19-.53.37-.84.5-.32.15-.65.22-1.01.22-.14,0-.27-.01-.4-.03-.45-.07-.87-.27-1.26-.58-.65-.52-1.01-1.18-1.07-1.97,0-.09-.02-.17-.02-.25,0-.96.43-1.97,1.29-3.02.39-.48.8-.89,1.24-1.22.44-.34,1.03-.71,1.8-1.12.25-.14.4-.24.41-.26.05-.05.08-.16.12-.39l.21-.09.07-.03,1.09,2.44-.07.03-.29.08s-.06-.06-.08-.08c-.05-.04-.12-.06-.22-.06-.11,0-.23.02-.37.06-.96.28-1.79.85-2.49,1.72-.31.38-.54.75-.68,1.11-.06.19-.1.38-.1.55,0,.07,0,.13.02.2.03.24.13.4.28.53.12.1.25.15.38.15.15,0,.32-.06.51-.19.19-.13.55-.45,1.06-.99l.79-.78c.46-.47.88-.82,1.23-1.06.36-.24.73-.42,1.1-.53.21-.05.42-.08.64-.08.19,0,.38.02.58.06.42.09.8.28,1.14.56.54.43.88,1,1.01,1.68.04.17.05.34.05.51,0,.5-.13,1.04-.38,1.63-.25.59-.61,1.17-1.06,1.72-.8.99-1.84,1.79-3.1,2.37-.25.12-.41.22-.41.23-.02.01-.04.12-.08.35l-.28.12-1.24-2.42" style="fill:#1a64b7;"/></g><g id="uuid-f4b67c68-ab57-444c-bc53-a96d879ec6e6"><path id="uuid-9ebe934c-b674-4a60-8d6a-9298e9d0fca7" d="M77.11,45.96c0,21.23-17.21,38.44-38.44,38.44S.22,67.19.22,45.96,17.43,7.52,38.67,7.52s38.44,17.22,38.44,38.45" style="fill:#1a64b7;"/></g><g id="uuid-cf472ec9-b946-4050-bbaa-2279d4ff580b"><path id="uuid-75f79166-dd0c-4828-a8e4-c7687b3fce5b" d="M38.65,77.88c-18.3,0-33.14-14.84-33.14-33.14S20.35,11.59,38.65,11.59s33.14,14.84,33.14,33.14-14.83,33.14-33.14,33.14M38.65,9.38C19.11,9.38,3.28,25.21,3.28,44.75s15.84,35.37,35.37,35.37,35.37-15.83,35.37-35.37S58.18,9.38,38.65,9.38" style="fill:#fbbf16;"/></g><g id="uuid-9f94e1a1-186c-4638-a1e4-6d3a4ee04ada"><path id="uuid-ed779f09-33ff-4f58-bca4-aa13052742cc" d="M19.21,27.99s19.71,26.33,51.04,32.32l-5.65,1.62s-19.59-4.53-45.24-33.17" style="fill:#fbbf16;"/></g><g id="uuid-39fca1f6-8ae5-4698-be72-299ea21c5da5"><path id="uuid-4248d12a-1630-49de-877e-780d464c9945" d="M9.91,65.07s25.5-4.2,53.6-3.52l5.63-1.21-3.04,6.63s-29.66-1.02-51.63,1.29c-3.91-.54-3.4-1.97-3.4-1.97l-1.17-1.22" style="fill:#fbbf16;"/></g><g id="uuid-2b550657-895d-47d8-a6ce-7fe5273ac147"><path id="uuid-d20af332-2685-42d6-9219-a59ace7e3492" d="M13.69,68.68s33.24-1.45,50.1.79c.45.06,1.37-1.52,1.37-1.52,0,0-12.24-1.69-49.71-.39-6.08.21-1.76,1.11-1.76,1.11" style="fill:#fbbf16;"/></g><g id="uuid-e58c1c48-7d3f-468a-98aa-233a1c771f23"><path id="uuid-411c14e7-23b6-414c-968d-b87c3976f829" d="M17.59,30.83c-6.06,14.36-13.22,20.09-13.22,20.09l.41,2.89s7.89-10.24,12.81-21.68c2.71-6.32,0-1.3,0-1.3" style="fill:#fbbf16;"/></g><g id="uuid-71a7e33c-3d3e-49a2-8604-d63480ebbb53"><path id="uuid-47445182-329b-465c-be56-85e993681c96" d="M18.13,26.89l-.86.21s-.84,40.95-.29,45.51c.05.4,2.04.04,2.04.04,0,0,.68,2.78,1.98,1.62-1.15-14.51-1.43-48.23-1.43-48.23h-1.42l-.02.85" style="fill:#fbbf16;"/></g><g id="uuid-ccfc156e-dc63-4ffa-9a1a-17eb3d45d869"><path id="uuid-bee9c76c-3f5f-457f-bd1f-fb95b45db925" d="M20.1,27.62l.96-.83,1.03.46s1.03,38.6,2.88,49.42l-1-.08s-2.01-.12-2.15-1.38c-.81-7.23-1.72-47.6-1.72-47.6" style="fill:#fbbf16;"/></g><g id="uuid-a4a04b15-ad4d-4f82-a5b5-24f1e31a6a3c"><path id="uuid-7412c8b8-60d6-41fb-bcfd-5f1a6012bb8c" d="M14.64,65.91l-.69-.12,2.86-16.11.69.12-2.85,16.11Z" style="fill:#fbbf16;"/></g><g id="uuid-f08f307b-bc26-44a7-b711-29e2d196c5b6"><path id="uuid-12f66781-da3e-43e5-9e0d-c7725306db3d" d="M12.1,65.6l-.68-.13,5.75-32.47.69.12-5.76,32.48Z" style="fill:#fbbf16;"/></g><g id="uuid-06542ade-d595-4642-ba47-4ae3c518f0b5"><path id="uuid-28f84399-16ba-46ad-a3b9-44214b2352b8" d="M10.04,63.48l-.53-.69,3.99-22.78.99-1.55-4.44,25.01Z" style="fill:#fbbf16;"/></g><g id="uuid-e890d471-3dd9-4413-91b2-3ef3b6c6a082"><path id="uuid-3b8c812a-4e6e-4ed2-88fe-770aba292f57" d="M26.77,64.14l.67-.21-6.37-20.24.55,4.24,5.15,16.21Z" style="fill:#fbbf16;"/></g><g id="uuid-0b512bc1-1ff6-49bb-bafa-29bd1aa49584"><path id="uuid-02d93407-b68a-46e5-95c5-e14b97a53124" d="M29.24,63.51l.67-.21-8.6-27.66.06,2.78,7.87,25.08Z" style="fill:#fbbf16;"/></g><g id="uuid-ebe65fbd-f0da-4486-a519-025973573455"><path id="uuid-72bd8588-0371-47bf-8980-576f21fae512" d="M32.12,62.99l.67-.21-9.3-29.68-1.15-1.21,9.78,31.09Z" style="fill:#fbbf16;"/></g><g id="uuid-fa2c973e-e5af-4add-9418-d9c6f71ac68c"><path id="uuid-75b54bc7-54cc-42a4-a00a-3d5bbc27050d" d="M26.4,36.19l8.52,26.73.67-.22-7.98-25.36-.42-.42" style="fill:#fbbf16;"/></g><g id="uuid-9e118b43-15f1-44f4-b929-5c67c5714103"><path id="uuid-e4e386b6-562c-468f-86a2-87397de4e242" d="M30.59,40.16l7.22,22.78.67-.21-6.84-21.66-.94-.9" style="fill:#fbbf16;"/></g><g id="uuid-e4041ae2-5406-4845-8120-2ba0b9c6c07d"><path id="uuid-6cd2badf-90ac-40d8-b66e-952f6dc2c070" d="M40.43,62.45l.67-.21-5.75-18.01-.94-.72,6.01,18.94Z" style="fill:#fbbf16;"/></g><g id="uuid-37e2e0f9-60d7-414c-be11-1463e0cb16fd"><path id="uuid-ed60d5da-9240-4027-970c-6ef327dd8263" d="M43.41,62.33l.67-.21-4.61-14.6-1.08-.97,5.02,15.79Z" style="fill:#fbbf16;"/></g><g id="uuid-bf0c670b-733b-4cd5-affa-e30d6536a92b"><path id="uuid-3022e98a-7a65-4240-9a70-821ebaf7cf33" d="M42.1,49.39l4.11,12.86.67-.21-3.73-11.86-.65-.38" style="fill:#fbbf16;"/></g><g id="uuid-605dd3d9-271b-4390-aa34-99db6cc297f4"><path id="uuid-5a07da10-671a-41c2-ab70-967893384d7b" d="M45.96,52.31l3.15,9.96.66-.21-2.91-9.18-.8-.25" style="fill:#fbbf16;"/></g><g id="uuid-6cb729b5-9103-4356-a226-bdb7600e4364"><path id="uuid-76d5e1be-1615-43fa-92dd-2539ea452b0d" d="M53.13,65.66l.67-.21-3.15-10.18-1.18-1.41,3.65,11.79Z" style="fill:#fbbf16;"/></g><g id="uuid-63651fb7-9850-44f2-a0b0-d4966d53450c"><path id="uuid-da7e0cc5-2eed-44fb-a6cb-f24b18ec59b6" d="M52.96,56.01l2.79,8.92.67-.22-2.4-7.67-1.06-1.04Z" style="fill:#fbbf16;"/></g><g id="uuid-0905f840-c8ba-4f99-a40e-5a5dc47807d2"><path id="uuid-ea7449c9-23a9-4977-9e49-ae82387a1168" d="M56.55,58.22l2.04,6.44.67-.21-1.71-5.36-1.01-.87Z" style="fill:#fbbf16;"/></g><g id="uuid-7e4d9763-f0b0-41df-b150-3379c5398525"><path id="uuid-c39e7ace-f13e-4874-bc52-ab4472d3a50a" d="M6.63,57.18l-.83-.65,2.16-8.42.69.08-2.02,8.99Z" style="fill:#fbbf16;"/></g><g id="uuid-e0e43f2a-0aa0-4d15-8df7-fe8fa9421d33"><path id="uuid-4f24a024-211e-4bf0-af62-ab416fba1b2f" d="M8.47,59.54l-.53-.69,2.48-14.08.9-1.3-2.84,16.07Z" style="fill:#fbbf16;"/></g><g id="uuid-e25018bb-90a9-4ad2-adb5-3be335f82a45"><path id="uuid-2dc4888c-0fe3-4c59-a769-380ecb4da3b0" d="M3.68,18.5l-.18.14s-.06-.07-.09-.1c-.09-.07-.21-.07-.36-.01-.15.06-.31.15-.48.28-.17.13-.34.29-.51.47-.17.18-.32.36-.45.54-.16.22-.29.46-.38.72-.1.26-.14.52-.13.79s.08.52.21.78c.13.25.35.49.64.71.29.21.57.34.86.39.28.05.55.04.81-.03.25-.07.49-.2.71-.37.22-.17.41-.36.57-.58.25-.33.44-.66.58-.97.14-.31.25-.58.32-.82l-.76-.56-.83,1.14c-.06.08-.09.16-.08.23,0,.07.06.15.17.25l-.12.16-1.13-.83.12-.16c.11.06.19.08.25.06.06-.02.12-.07.18-.16l1.62-2.21.16.12c-.07.13-.1.22-.1.27,0,.05.04.1.12.16l1,.73c.06.04.11.05.16.03.04-.02.09-.05.15-.08l.14.1c0,.29-.04.58-.11.86-.07.28-.16.55-.27.81-.11.26-.24.5-.39.73-.15.23-.3.45-.46.66-.3.41-.63.75-.98,1.02-.35.26-.72.44-1.1.53-.38.09-.77.1-1.15.02-.39-.08-.77-.26-1.14-.53-.37-.27-.66-.58-.85-.93-.19-.35-.31-.72-.34-1.11-.03-.39.03-.8.16-1.22.14-.42.36-.83.66-1.25.19-.26.39-.49.6-.71.21-.21.4-.39.58-.54.18-.15.33-.27.46-.36.13-.09.2-.16.22-.18.04-.05.05-.1.05-.15,0-.05,0-.09,0-.14l.14-.06.79,1.38" style="fill:#1a64b7;"/></g><g id="uuid-f6d5f9d1-43e5-4f01-8fbd-6dc7b96db09b"><path id="uuid-0fef72e6-8cd4-4d05-9aa5-c5a183c100fe" d="M7.29,13.65c-.15.25-.25.51-.3.79-.05.27-.05.54,0,.82.06.27.19.52.4.75.21.23.44.38.71.47.27.08.53.11.81.08.27-.03.54-.1.81-.23.26-.12.5-.28.7-.46.21-.19.38-.41.53-.66.14-.25.24-.51.3-.79.05-.27.05-.54,0-.81-.06-.27-.19-.52-.4-.75-.21-.22-.44-.39-.71-.47-.27-.08-.54-.11-.81-.08-.28.03-.54.1-.81.23-.27.12-.5.28-.7.46-.2.19-.38.41-.53.66M8.17,11.55c.39-.19.79-.31,1.21-.37.41-.05.83-.02,1.24.11.41.12.79.37,1.12.75.34.37.55.77.64,1.19.09.42.08.84,0,1.25-.09.41-.25.8-.49,1.16-.23.36-.5.68-.79.95-.3.27-.64.5-1.02.71-.38.2-.78.32-1.2.38-.42.05-.83.02-1.24-.11-.41-.12-.79-.37-1.12-.75-.34-.37-.55-.77-.64-1.19-.09-.42-.08-.84,0-1.25.09-.41.25-.8.48-1.17.23-.37.49-.69.79-.96.3-.27.64-.5,1.03-.69" style="fill:#1a64b7;"/></g><g id="uuid-f887ae6f-c565-4eac-95c0-863995e01708"><path id="uuid-7b9dd4f1-daba-4018-ae77-45963460ee31" d="M19.58,10.48c-.07.03-.15.07-.24.12l-4.44,2.75-.1-.17c.18-.12.25-.23.18-.34l-2.62-4.23c-.07-.11-.2-.11-.38,0l-.1-.17,1.6-.99.11.17c-.18.11-.23.22-.16.33l2.3,3.71,3.09-1.92c.09-.06.15-.13.19-.21.03-.08.02-.16-.02-.23l.17-.1.79,1.28-.17.1c-.06-.09-.12-.13-.19-.1" style="fill:#1a64b7;"/></g><g id="uuid-9ddbafdd-8020-4395-8248-558ae65d0c83"><path id="uuid-adc0c2f8-597d-466e-b3c9-10a4ef8d5381" d="M23.37,7.77c.32-.13.59-.26.8-.41.22-.15.37-.32.48-.53.1-.2.14-.43.13-.69-.01-.26-.09-.57-.23-.92-.14-.35-.29-.63-.46-.83-.17-.2-.36-.34-.57-.42-.21-.08-.45-.09-.71-.05-.26.04-.55.12-.87.25l-1.58.63,1.44,3.61,1.58-.63ZM22,3.13c.37-.15.74-.23,1.11-.25.36-.02.71.04,1.04.16.33.13.62.33.89.61.27.28.5.65.68,1.11.18.46.27.88.26,1.27,0,.39-.08.74-.23,1.06-.15.31-.36.59-.64.83-.28.24-.61.43-.98.58l-3.38,1.34-.07-.18c.16-.06.21-.15.16-.28l-1.84-4.63c-.05-.12-.16-.15-.31-.09l-.08-.19,3.39-1.34" style="fill:#1a64b7;"/></g><g id="uuid-07d02f5a-e90c-4b81-903e-841dc530a9e4"><path id="uuid-2a44479a-6eb6-49c1-85ae-0d9b7268f674" d="M32.75,1.51c-.02-.08-.06-.13-.13-.16-.07-.03-.18-.03-.33,0l-3.48.68.26,1.34,2.11-.41c.14-.03.25-.07.32-.12.07-.06.09-.17.06-.33l.19-.04.32,1.68-.19.04c-.03-.17-.09-.26-.18-.3-.09-.03-.2-.03-.35,0l-2.11.41.29,1.49,3.6-.7c.11-.02.19-.06.25-.13.06-.06.08-.14.06-.23l.19-.03.29,1.47-.19.04c-.02-.11-.07-.16-.14-.16-.07,0-.16,0-.27.03l-5.01.98-.04-.19s.09-.03.13-.07c.03-.04.04-.09.03-.16l-.95-4.89c-.01-.07-.04-.11-.09-.14-.04-.02-.09-.03-.14-.02l-.04-.19,4.91-.96c.15-.03.25-.07.3-.13.05-.06.07-.13.06-.21l.19-.04.28,1.42-.19.04" style="fill:#1a64b7;"/></g><g id="uuid-faec1a80-dd23-4d62-a923-6e0db7d30de8"><path id="uuid-3a383d96-4f83-4647-85a3-7a82e7a68a1b" d="M35.55,5.57c.14,0,.21-.07.21-.2V.4c0-.13-.07-.2-.21-.2v-.2s1.87,0,1.87,0v.2c-.06,0-.09.04-.09.11,0,.06.07.16.22.31l3.15,3.27V.4c0-.13-.09-.2-.29-.2V0h1.66v.2c-.14,0-.21.07-.21.2v4.98c0,.13.07.2.21.2v.2h-1.78v-.2c.09,0,.14-.03.14-.1,0-.05-.06-.14-.17-.25l-3.35-3.49v3.64c0,.13.08.2.25.2v.2h-1.62v-.2" style="fill:#1a64b7;"/></g><g id="uuid-e7096519-1789-439d-b4d8-07161778e325"><path id="uuid-a68bd7a5-1c94-4c19-81b1-0751c9a81749" d="M48.25,4.94l.09.08c-.02.06-.02.12,0,.18.03.1.1.21.22.33.12.12.26.24.43.35.17.12.35.22.54.32.19.1.37.17.53.21.12.04.28.07.47.1.19.04.39.05.59.05.2,0,.38-.04.54-.1.16-.06.27-.17.31-.34.04-.16.02-.3-.08-.41-.1-.11-.25-.21-.44-.3-.19-.09-.41-.18-.67-.26-.25-.08-.51-.17-.77-.27-.26-.1-.52-.2-.76-.33-.24-.12-.45-.27-.62-.44-.17-.17-.28-.38-.35-.61-.07-.23-.06-.52.04-.84.06-.22.17-.42.33-.6.16-.18.37-.32.63-.43.25-.1.56-.16.91-.17.35-.01.75.04,1.18.17.37.11.69.22.95.36.26.13.48.26.66.38.18.12.33.23.45.32.12.09.23.15.32.18.1.03.17.03.23,0l.1.12-1.1,1.12-.09-.07c.01-.1,0-.19-.02-.27-.03-.1-.1-.21-.21-.33-.11-.12-.24-.23-.4-.34-.16-.11-.33-.22-.53-.31-.19-.09-.39-.17-.6-.23-.16-.04-.32-.07-.49-.09-.17-.02-.34-.03-.48-.02-.15.01-.28.05-.39.1-.11.06-.18.14-.22.27-.05.17-.02.31.08.43.1.12.25.23.43.33.19.1.41.19.66.28.25.09.51.18.78.27.26.1.51.21.75.33.24.12.45.27.61.44.17.17.29.37.36.61.07.23.06.51-.03.82-.1.37-.28.64-.54.82-.26.18-.55.3-.87.35-.33.05-.66.06-1.01,0-.34-.05-.66-.11-.95-.19-.4-.11-.73-.23-.99-.35-.26-.12-.46-.24-.63-.36-.16-.12-.29-.22-.38-.3-.09-.08-.18-.13-.25-.15-.05-.02-.1,0-.16.04l-.12-.12.94-1.12" style="fill:#1a64b7;"/></g><g id="uuid-58474513-00aa-4062-8682-99a1dc5092e1"><path id="uuid-adae528d-9db6-4a59-a56c-684ef3278309" d="M57.4,9.94l-.09.18-1.52-.73.08-.18s.09.03.15.01c.05,0,.09-.05.12-.1l1.87-3.95-1.63-.78c-.06-.03-.13-.04-.2-.03-.07,0-.13.06-.17.15l-.18-.08.66-1.39.18.09c-.04.09-.04.17,0,.23.04.06.09.1.15.13l4.4,2.09c.06.03.12.04.2.03.07,0,.13-.06.17-.15l.18.08-.66,1.39-.18-.09c.04-.09.04-.17,0-.23-.04-.06-.09-.1-.15-.13l-1.64-.77-1.87,3.94c-.06.12-.01.21.13.28" style="fill:#1a64b7;"/></g><g id="uuid-4c83b40e-3b16-4954-bbe4-e351f7daba3b"><path id="uuid-25666d46-a1b1-4db4-be9b-6037ee957aa6" d="M63.74,11.35l.38-2.21-2,1.11,1.62,1.09ZM59.17,10.73c.09.04.17.04.27,0,.09-.04.19-.08.29-.14l4.07-2.4c.09-.05.18-.1.26-.14.08-.04.14-.09.17-.14.04-.06.05-.12.02-.17-.03-.06-.06-.1-.1-.15l.11-.16,1.54,1.04-.11.16c-.05-.02-.11-.03-.16-.04-.06,0-.11.02-.15.09-.03.05-.06.11-.07.17,0,.06-.02.15-.03.26l-.61,4.98c-.01.09,0,.16.03.23.03.06.07.13.12.21l-.11.16-1.6-1.08.11-.16s.06.03.11.03c.05,0,.08-.01.11-.04.04-.06.07-.16.09-.29l.11-.9-2.22-1.5-.76.42c-.15.08-.24.16-.27.21-.04.07-.01.14.1.22l-.11.16-1.29-.87.11-.16" style="fill:#1a64b7;"/></g><g id="uuid-75b495ed-d9dd-4e7b-b250-e25acbc1a270"><path id="uuid-8113af61-fcc4-4370-bedb-72ee4cfe61a7" d="M67.52,17.09l-.13.15-1.24-1.15.14-.15s.08.05.13.06c.05,0,.1-.02.14-.07l2.96-3.21-1.33-1.23c-.05-.05-.11-.08-.18-.09-.07-.02-.14.02-.21.09l-.15-.13,1.04-1.13.15.13c-.07.08-.09.15-.07.22.02.07.05.12.1.17l3.58,3.3s.11.08.18.09c.07.02.14-.02.21-.09l.14.13-1.04,1.13-.15-.13c.07-.08.09-.15.07-.22-.02-.07-.06-.13-.1-.17l-1.33-1.23-2.96,3.21c-.09.1-.07.2.04.31" style="fill:#1a64b7;"/></g><g id="uuid-d06a0eaf-ce8b-43ab-a6a5-d6e896e09c34"><path id="uuid-65794e22-036b-4885-9602-325b65b681e9" d="M76.78,21.17c.06-.05.09-.11.09-.18,0-.08-.06-.17-.15-.29l-2.17-2.81-1.08.83,1.31,1.7c.09.11.18.19.26.23.08.04.19,0,.32-.09l.12.16-1.36,1.05-.12-.16c.13-.1.2-.2.19-.29-.01-.09-.06-.2-.15-.31l-1.31-1.7-1.2.92,2.24,2.9c.07.09.14.14.22.17.08.03.16,0,.23-.04l.12.16-1.19.92-.12-.16c.09-.07.12-.13.09-.2-.03-.07-.08-.14-.15-.23l-3.12-4.05.16-.12s.07.07.12.08c.05.01.1,0,.16-.04l3.94-3.04c.06-.04.08-.09.08-.14,0-.05-.01-.1-.04-.14l.16-.12,3.05,3.96c.09.12.18.19.26.21.08.02.14,0,.21-.05l.12.16-1.15.89-.12-.16" style="fill:#1a64b7;"/></g></g></g></svg>