<?xml version="1.0" encoding="UTF-8"?><svg id="a" xmlns="http://www.w3.org/2000/svg" viewBox="0 0 197.9508 261.96">
<title>Brooklyn_Nets_2012-2024-logo - brandlogos.net</title><path d="M28.9469,228.3599c0,1.4401-.12,4.0801-3.12,5.04-.9815.2421-1.989.363-3,.36h-2.4v-15.7199h3.6c1.92.12,3.96.12,4.56,1.92.1753.7907.2956,1.5926.36,2.4v6h0ZM20.5469,237.9599h2.52c3.24.12,6,.48,7.08,3.24.2379.9823.3587,1.9893.36,3v6.48c0,3.12-.24,4.5599-1.44,5.52-.72.6-1.56.84-3.84.96h-4.68v-19.2ZM32.6669,236.8799c-.7062-.5924-1.5215-1.0408-2.4-1.3199,1.3787-.7381,2.4127-1.9876,2.88-3.48.2675-1.0585.3886-2.1486.36-3.24v-6.96c-.12-1.92-.24-4.08-1.68-5.64-1.5357-1.5781-3.6819-2.4102-5.88-2.28h-9.36c-.4255.0434-.7422.4129-.72.84v45.96c0,.48.24.84.72.84h9.6c2.3518.0994,4.6581-.6694,6.48-2.16,2.16-2.04,2.52-4.4401,2.52-7.0801v-7.9199c0-2.64,0-5.52-2.52-7.5601h0Z"/><path d="M52.3469,223.44v7.2c0,.96,0,3-2.28,3.72-.7934.3469-1.6546.511-2.52.48h-5.16v-16.8h5.28c1.0338-.0452,2.0631.1606,3,.6,1.56.84,1.56,2.88,1.68,4.8ZM51.0269,238.56c.36-.12.6-.2401.96-.36,2.3808-.8488,4.1813-2.8293,4.8-5.28.2607-1.0189.3818-2.0685.36-3.12v-7.5601c-.12-1.3199-.12-4.4399-2.76-6.6-2.16-1.68-4.56-1.68-6.96-1.8h-9c-.362.0379-.628.3571-.6.72v46.08c-.028.3629.238.6821.6.72h3.24c.3817.016.704-.2805.72-.6621.0008-.0193.0008-.0386,0-.0579v-21.72h3.84l8.16,21.96c.1133.297.4023.4897.72.48h3.36c.3863-.0262.6938-.3337.72-.72,0-.24,0-.36-.12-.48l-8.04-21.6Z"/><path d="M64.4669,224.04c0-2.64.72-4.44,2.4-5.52.9146-.6373,2.0054-.9729,3.12-.96.9696-.0263,1.9268.2234,2.76.72.7475.4317,1.3683,1.0525,1.8,1.8.84,1.6799,1.08,3.84,1.08,7.4399v22.44c-.12,2.4-.24,5.04-2.4,6.6-.8752.7255-1.9836,1.1092-3.12,1.08-2.1701.1279-4.1868-1.1205-5.04-3.12-.4244-1.6442-.5864-3.3452-.48-5.04l-.12-25.4399ZM76.4669,215.16c-1.8785-1.2526-4.1036-1.8824-6.36-1.8h-.24c-4.44,0-8.04,2.28-9.24,6-.463,1.5625-.7448,3.1731-.84,4.8v26.64c.12,2.52.24,5.4,2.28,8.04,2.28,2.76,6.12,3.12,7.68,3.12,5.64,0,7.92-3,8.64-4.32,1.32-2.04,1.44-4.08,1.56-6.48v-25.32c.12-3.72.12-8.04-3.48-10.68h0Z"/><path d="M87.387,224.04c0-2.64.72-4.44,2.28-5.52.9335-.5837,2.0197-.8761,3.12-.84,1.0132-.0844,2.0258.1687,2.88.72.7475.4317,1.3683,1.0525,1.8,1.8.84,1.56.96,3.84.96,7.44v22.32c0,2.52-.12,5.16-2.28,6.72-.8885.6891-1.9978,1.0305-3.12.96-2.1686.1364-4.2056-1.0479-5.16-3-.4244-1.6442-.5864-3.3452-.48-5.04v-25.56ZM99.267,215.16c-1.8338-1.2523-4.021-1.8832-6.24-1.8h-.24c-4.56,0-8.04,2.28-9.36,6-.4319,1.5653-.6736,3.1769-.72,4.8v26.64c.12,2.64.12,5.52,2.16,8.16,2.4,2.76,6.12,3,7.8,3,5.52,0,7.92-3,8.64-4.32,1.32-2.04,1.44-4.08,1.56-6.36v-25.44c0-3.72,0-8.04-3.6-10.68h0Z"/><path d="M115.4669,232.68l9.6-18.12c.12-.182.12-.418,0-.6-.1147-.2249-.3476-.3647-.6-.36h-3.6c-.2524-.0047-.4853.1351-.6.36l-10.2,19.8v-19.56c.016-.3817-.2805-.704-.6621-.72-.0193-.0008-.0386-.0008-.0579,0h-3.24c-.3863.0262-.6938.3337-.72.72v46.08c-.016.3817.2804.704.6621.72.0193.0008.0386.0008.0579,0h3.12c.4288.027.8011-.2921.84-.72v-17.28l2.52-4.8,7.8,22.32c.1533.2623.4189.4394.72.48h3.48c.4255-.0434.7422-.4129.72-.84,0-.12-.12-.24-.12-.36l-9.72-27.12Z"/><path d="M143.067,257.04h-11.28v-42.48c-.0262-.3863-.3337-.6938-.72-.72h-3.24c-.3863.0262-.6938.3338-.72.72v46.08c.0262.3863.3337.6938.72.72h15.24c.3863-.0262.6938-.3337.72-.72v-2.88c-.0262-.3863-.3337-.6938-.72-.72Z"/><path d="M160.2269,213.84h-3.48c-.3125.0077-.5927.1945-.72.48l-6.6,19.68-6.6-19.68c-.0862-.3175-.3938-.5225-.72-.48h-3.36c-.2524-.0046-.4853.1351-.6.36-.0969.1843-.1385.3926-.12.6l9,25.5599v20.28c.0434.4255.4129.7422.84.72h3.12c.3817.016.704-.2805.72-.6621.0008-.0193.0008-.0386,0-.0579v-20.28l9.36-25.5599c.12-.182.12-.418,0-.6-.2389-.1994-.5309-.3245-.84-.36Z"/><path d="M181.4669,213.84h-3.24c-.188.0035-.3644.0917-.48.24-.1264.1322-.2101.2995-.24.48l.24,33.6c0,.96.12,1.8.12,2.76v1.56l-9.6-38.04c-.0208-.3223-.2777-.5792-.6-.6h-4.8c-.3863.0262-.6938.3337-.72.72v46.08c-.016.3817.2805.704.6621.72.0193.0008.0386.0008.0579,0h3.12c.24,0,.36,0,.48-.12.12-.24.24-.36.24-.6l-.24-32.64v-4.44l9.24,37.3199c.0862.3175.3938.5225.72.48h4.8c.4288.027.8011-.2921.84-.72v-46.08c.0659-.3252-.1444-.6423-.4696-.7081-.0429-.0087-.0866-.0127-.1304-.0119Z"/><path d="M197.907,27.36v-5.76l-2.28-1.2c-1.68-.84-40.92-20.4-95.4-20.4h-2.52C43.227,0,3.987,19.56,2.427,20.4L.027,21.6v5.64c-.36,23.16,2.4,82.08,38.4,127.8,29.16,37.2,56.64,45.72,59.64,46.56l1.2.36,1.2-.24c1.2-.36,29.16-8.52,59.16-46.56,35.8799-45.72,38.76-104.64,38.28-127.8Z"/><path d="M99.267,195.84c-2.28-.6-28.2-8.64-56.28-44.28C6.1469,104.64,6.027,43.32,6.267,28.8v-3.12c.0649.0014.1186-.0501.12-.115,0-.0017,0-.0033,0-.005v-.12l.84-.36c2.04-.84,6.36-2.76,12.72-5.04,24.9977-9.1081,51.3947-13.7783,78-13.8h2.52c26.4855.0514,52.7591,4.7214,77.64,13.8,6.36,2.28,10.8,4.2,12.72,5.04l.84.36v.12l.12.12v3.12c.36,14.52.24,75.84-36.72,122.76-28.08,35.64-53.64,43.6799-55.8,44.28ZM156.867,153.12c35.28-44.76,38.04-102.48,37.56-125.16v-4.2l-.72-.36c-1.56-.84-40.08-19.92-93.48-19.92h-2.64C44.187,3.48,5.7869,22.56,4.1069,23.4l-.72.36v3.96c-.48,22.8,2.28,80.52,37.56,125.28,28.44,36.24,54.84,44.64,57.84,45.36l.36.1201.36-.1201c1.32-.24,28.08-8.16,57.36-45.24Z" style="fill:#fff;"/><path d="M167.1869,54.6c-13.08-13.56-14.52-15.72-14.52-21.36,0-5.52,2.4-6.24,4.8-6.24,1.5054.0413,2.9986.2835,4.44.72,9.48,2.76,9.48,7.92,9.48,11.76v5.52c.0002.4083.233.7809.6.96,2.4.72,3.48,1.2,5.88,2.04.304.2099.7171.1583.96-.12.3086-.164.4954-.4909.48-.84v-4.56c0-5.76,0-15.48-16.92-20.4-11.88-3.36-18,.24-18,10.56,0,8.52,5.28,13.56,14.04,22.08l1.68,1.68c10.32,10.2,12.36,13.44,12.36,19.8,0,2.4-.36,3.96-1.08,4.92-.72,1.08-1.8,1.4401-3.6,1.4401-1.7505-.0403-3.4871-.323-5.16-.84-4.56-1.32-7.8-3.12-9.84-5.28-2.4-2.64-2.4-4.92-2.4-9.48v-4.8c0-.48-.24-.96-.72-.96-2.64-.6-3.84-.84-6.24-1.32-.3028-.0947-.6329-.0004-.84.24-.1906.2442-.3146.5336-.36.84v8.6399c0,8.04,6.72,14.28,19.2,17.88,2.9876.9671,6.1005,1.4927,9.24,1.56,9.72,0,9.72-8.04,9.72-11.4.12-8.88-4.44-14.04-13.2-23.04ZM140.7869,17.76c-12.515-2.2738-25.2007-3.4782-37.92-3.6-.4838-.1127-.9673.1882-1.08.672-.0312.1342-.0312.2738,0,.408v3.84c.0388.5796.5004,1.0412,1.08,1.08,5.88,0,9,.24,14.64.6v56.88c-.0177.5578.4039,1.0321.96,1.08,2.52.24,3.72.24,6.24.6h.12c.2524.0046.4853-.1351.6-.36.2543-.1453.3963-.4293.36-.72V21.6c5.64.6,8.88,1.08,14.76,2.16.3007.0344.6028-.0519.84-.24.2373-.2137.3689-.5208.36-.84v-3.84c-.1078-.5038-.4723-.9139-.96-1.08h0ZM96.5069,14.28c-10.6991.1199-21.3722,1.0829-31.92,2.88-.5227-.0075-.9525.4101-.96.9328-.0001.0091-.0001.0182,0,.0272v61.68c.0451.2707.1705.5215.36.72.2189.1331.465.2151.72.24h.12c10.4374-1.6981,20.9863-2.6206,31.5601-2.76.5543-.0514.974-.5235.96-1.08v-3.84c-.0182-.2787-.148-.5383-.36-.72-.1453-.2543-.4293-.3963-.72-.36-8.1889.1044-16.3639.7055-24.48,1.8v-24.36c6.6436-.9321,13.334-1.493,20.04-1.68.4857.0445.9155-.3132.96-.799.0049-.0536.0049-.1075,0-.161v-3.84c-.0249-.255-.1069-.5011-.24-.72-.1915-.1845-.4561-.2727-.72-.24-6.7038.1478-13.3941.6686-20.04,1.56v-21.6c8.1505-1.1496,16.369-1.7509,24.6-1.8.5385.0552,1.0198-.3365,1.075-.875.0029-.0283.0046-.0566.005-.085v-3.84c.0363-.2907-.1057-.5747-.36-.72-.1147-.2249-.3476-.3646-.6001-.36ZM55.5869,18.72c-2.4.48-3.6.72-6,1.32-.4906.046-.8595.4677-.84.96l.48,44.76c0,3,.12,5.76.24,8.28-6-15.6-12.36-31.68-18.84-47.88-.204-.4623-.7078-.7142-1.2-.6-3.6,1.2-5.4,1.8-8.88,3.24-.4181.1366-.7059.5204-.72.96v61.6801c.0077.3125.1945.5927.48.72.12.24.36.24.6.24.132.0163.2642-.0278.36-.12,2.16-.84,3.36-1.2,5.52-2.04.4462-.095.7537-.505.72-.96-.12-14.52-.12-29.16-.24-43.68,0-3.84,0-6-.12-8.76,6.24,16.2,12.48,31.92,18.36,46.92.1279.4782.6193.7621,1.0975.6342.0348-.0093.0691-.0207.1025-.0342,3.72-.84,5.64-1.32,9.36-2.04.4706-.0833.8199-.4825.84-.96V19.68c-.0141-.3144-.142-.613-.36-.84-.2943-.1568-.6361-.1996-.96-.12Z" style="fill:#fff;"/><path d="M133.5869,158.28c-.6.48-1.2.84-1.92,1.32-1.68,1.2-3.48,2.16-5.16,3.24-.8126.5631-1.6537,1.0838-2.52,1.56-6.12,3.84-13.56,8.04-21.36,10.44-2.1269.649-4.2908,1.17-6.48,1.56-1.8208.3332-3.669.4939-5.52.48h-.36c-2.2526-.0158-4.5002-.2164-6.72-.6,8.532,2.9663,17.7356,3.4244,26.52,1.32,5.077-1.2622,9.9047-3.3718,14.28-6.24,4.2785-3.4779,7.5511-8.0347,9.48-13.2-.12,0-.24,0-.24.12ZM91.8269,174.6c5.0294-.5952,9.9087-2.0996,14.4-4.44.7579-.3277,1.4814-.7296,2.16-1.2.6-.24,1.2-.6,1.8-.84,4.2-2.16,8.64-4.5599,14.04-7.5599,2.04-.96,3.84-2.04,5.76-3.12l2.16-1.2c.84-.48,1.68-.84,2.4-1.32q.12-.12.24-.12c.7322-2.7101,1.2142-5.4818,1.44-8.28-5.4,2.64-13.44,5.04-25.2,7.44-15,3-29.76,1.68-42.96-3.96-8.88-3.72-13.08-8.88-14.76-11.64.2329,2.0208.5936,4.0248,1.08,6,2.8751,11.0488,9.7076,20.657,19.2,27.0001v-.12l1.2.72c1.2579.6963,2.5851,1.2593,3.96,1.68,2.8185.7598,5.7211,1.1629,8.64,1.2,1.44-.0001,2.88-.1201,4.44-.2401ZM138.8669,155.16q-.12-.12-.24-.12c-.3844.0281-.7556.1519-1.08.36-.12.12-.24.24-.36.24-.12.12-.24.12-.36.24-1.1173,3.0148-2.609,5.8772-4.44,8.52,2.5761-2.6609,4.7948-5.6461,6.6-8.88h-.12v-.36ZM140.6669,143.76c-.24.24-.36.24-.48.48-.2578.1315-.4994.2926-.72.48-.2583,2.8913-.8214,5.7471-1.68,8.52,1.44-.48,2.04.12,2.16.48q0,.12.12.12c2.4148-4.683,3.9599-9.7653,4.56-15-.8501,1.9683-2.2189,3.6688-3.96,4.92h0ZM139.4669,141.36c.12-.1199.24-.1199.36-.24,2.4756-1.939,4.2463-4.6371,5.04-7.6799.0017-3.7269-.4824-7.4382-1.44-11.04-.0035-.188-.0917-.3644-.24-.48-.4489,3.6139-2.1978,6.941-4.92,9.36.8126,3.2979,1.2157,6.6834,1.2,10.0798h0ZM70.7069,146.88c10.92,3.6,16.92,4.6801,24.84,4.6801,2.88,0,6.24-.12,10.32-.48,11.64-.96,23.88-4.8,30.48-8.04-.0223-3.2228-.3437-6.4366-.96-9.6-2.0681,1.2133-4.4451,1.7971-6.84,1.6799-2.76,0-6-.48-11.4-1.8-6.36-1.56-15.36-6.96-23.4-11.64-4.32-2.64-8.52-5.04-11.88-6.72-13.08-6.48-20.52-5.52-22.44-5.16-4.7431,7.9094-6.9617,17.0771-6.36,26.28.9601,1.2,5.4,6.72,17.64,10.7999h0ZM77.4269,109.5601c5.5803,2.4744,11.0276,5.2381,16.32,8.28,9.72,5.16,19.68,10.56,26.52,12.24,6,1.56,10.92,1.32,14.4-.36v-.24c-.12-.24-.12-.48-.24-.72-2.88-12.36-18.36-39.48-45.24-39.48-1.08,0-2.16.12-3.36.12-10.0309,2.8467-18.766,9.0801-24.72,17.64,1.288-.3725,2.6194-.5743,3.96-.6,3.48.1199,7.56,1.1999,12.36,3.1199h0ZM137.4269,127.8001c.603-.7429,1.1259-1.5473,1.56-2.4,3.24-6.24.48-13.2-.84-15.6-9.1861-15.0333-26.1417-23.5111-43.68-21.84,18.36.9599,36.12,17.3999,42.96,39.8399h0Z" style="fill:#fff;"/><path d="M117.027,142.56c0-3.36,0-8.28-3.96-12.12.4801-.7403.8443-1.5497,1.08-2.4.5574-1.8257.8009-3.7328.72-5.64v-9.36c-.12-3.48-.6-7.08-3.48-10.2-2.52-2.88-6.36-4.44-10.92-4.44h-12.48c-1.3931.0287-2.7231.5864-3.72,1.56-.937.9625-1.4547,2.2568-1.44,3.6l.12,60.48c-.0396,1.8306.928,3.5354,2.52,4.44.8255.5279,1.7804.8185,2.76.84h12.72c4.1609.1478,8.2268-1.2646,11.4-3.96h.12c4.2-3.72,4.56-8.16,4.68-12.36v-.12l-.12-10.32Z" style="fill:#fff;"/><path d="M100.2269,127.68c-.96.36-1.56.36-3.84.48h-2.4c-.36,0-.48-.12-.48-.48v-19.44c-.0235-.2416.1534-.4566.3951-.48.0282-.0027.0567-.0027.0849,0h3.84c1.6834-.1147,3.37.1733,4.92.84.5211.3348.9045.8459,1.08,1.44.3047,1.0536.4661,2.1433.48,3.24v8.16c-.12,1.8-.24,5.04-4.08,6.24ZM104.6669,159c-.96.72-2.16,1.08-5.04,1.2h-5.4c-.362-.0379-.628-.3571-.6-.72v-24.1199c0-.12,0-.36.36-.36h2.52c2.64.12,5.4.2401,7.2,1.4401,1.0284.6304,1.7952,1.6102,2.16,2.7599.3438,1.2503.5055,2.5436.48,3.84v8.88c.12,3.9599-.12,5.88-1.68,7.0799h0ZM113.7869,143.0399c0-3.48,0-7.56-3.48-10.44-.7906-.6582-1.682-1.185-2.64-1.56,1.6089-1.0906,2.7949-2.7002,3.36-4.56.4446-1.4777.6473-3.0176.6-4.56v-9.6c-.12-2.64-.36-5.76-2.64-8.16-1.8-2.04-4.8-3.12-8.4-3.12h-13.08c-.4114.0014-.8033.1755-1.08.48-.2424.3069-.3697.689-.36,1.08v63c.0397.5229.3019,1.0036.72,1.32.2549.1504.5441.233.84.24h13.2c3.3957.1334,6.7235-.9758,9.36-3.12,3.12-2.88,3.48-6.24,3.6-10.08v-10.92Z"/></svg>