<?xml version="1.0" encoding="UTF-8"?><svg id="Layer_1" xmlns="http://www.w3.org/2000/svg" viewBox="0 0 300 300"><defs><style>.cls-1{fill:#bd1b21;}.cls-2{fill:#fff;}</style></defs><path class="cls-2" d="M300,150c0,82.8-67.2,150-150,150S0,232.8,0,150,67.2,0,150,0s150,67.2,150,150"/><path d="M150,292.2c-37.7,0-73.1-14.6-99.9-41.1-26.8-26.5-41.8-61.9-42.2-99.6-.4-38,14-73.9,40.5-101C75,23.3,110.5,8.2,148.5,7.7h1.6c37.7,0,73.1,14.6,99.9,41.1s41.8,61.9,42.2,99.6c.4,38-14,73.9-40.5,101-26.6,27.2-62.1,42.3-100.1,42.8-.6,0-1.1,0-1.6,0"/><path class="cls-2" d="M164,52.4l-4.9,5h-13.9l-5-5v-27.5l5-5h13.8l5,5v27.5ZM149.6,28l-1.5,1.5v18.1l1.5,1.5h5.1l1.5-1.5v-18.1l-1.5-1.5h-5.1Z"/><path class="cls-2" d="M244.2,117.1l-6.6-2.3-6-12.5,2.3-6.6,24.8-11.9,6.6,2.3,6,12.5-2.3,6.6-24.8,11.9ZM260,93.6l-2-.7-16.3,7.8-.7,2,2.2,4.6,2,.7,16.4-7.8.7-2-2.3-4.6Z"/><path class="cls-2" d="M90.5,73.1l.1,7-9.7,9.9-7,.1-19.7-19.1-.1-7,9.6-9.9,7-.1,19.8,19.1ZM63,66.5v2.1l13,12.6h2.1l3.5-3.6v-2.1l-13-12.6h-2.1l-3.5,3.6Z"/><polygon class="cls-2" points="214.9 35.8 200.4 70.2 194.4 67.6 192.8 43.2 184.3 63.3 177.7 60.6 192.3 26.2 200.4 29.6 200.5 51 208.2 32.9 214.9 35.8"/><path class="cls-2" d="M118.8,43.6l-1.7,5.8,10.4,10.3-7.3,3.2-9.7-9.3-3.5,1.6,4.9,11.3-6.7,2.9-14.7-34.4,16-7,6.8,2.7,5.5,12.9ZM103.5,47l5.9-2.6c.1,0,.8-1.9.8-1.9l-2-4.7-2-.8-5.9,2.6,3.2,7.4Z"/><polygon class="cls-2" points="244.2 69.3 239.3 64.5 218.7 85.4 213.2 79.9 233.8 59 228.9 54.2 234.5 48.5 249.8 63.5 244.2 69.3"/><polygon class="cls-2" points="44.8 90.6 42 96.8 68.8 108.8 65.6 116 38.8 104 36 110.2 28.6 106.9 37.4 87.3 44.8 90.6"/><path class="cls-2" d="M249.7,186l-3.7,7-2.6-1.4-.7,1.4-2.3,4.4.6,2,3.7,1.9-.5-.3,2-.6,4.4-8.4,6.9-2.1,11.2,5.9,2.1,6.7-6.4,12.3s-6.8,2.1-6.8,2l-5.6-3,3.7-7,2.8,1.5,3-5.8-.6-2-3-1.6-2,.6-4.3,8.2-7,2.1h0l-11.2-5.9-2.2-6.9,6.4-12.3,6.8-2,5.3,3.3Z"/><path class="cls-2" d="M57.6,211.8l-5.9-1.3-9.5,11.1-3.7-7,8.6-10.3-1.8-3.4-11,5.7-3.4-6.4,33.2-17.2,8.1,15.5-2.3,6.9-12.3,6.4ZM53.1,196.8l3,5.7,2,.6,4.5-2.4.6-2-3-5.7-7.1,3.8Z"/><path class="cls-2" d="M106.5,257l-5.4,12.9-6.5-2.7,14.4-34.6,15.8,6.6,2.6,6.8-5.2,12.6-5.2,2.8-10.5-4.4ZM109.3,250.3l5.3,2.2,1.9-.8,2-4.7-.8-1.9-5.3-2.2-3.1,7.4Z"/><polygon class="cls-2" points="163.2 250.5 156.4 250.6 156.7 280 148.9 280.1 148.6 250.7 141.8 250.8 141.7 242.7 163.2 242.5 163.2 250.5"/><path class="cls-2" d="M206.7,262.8l-2.8,6.4-13,4.9-6.4-2.9-9.7-25.7,2.9-6.4,12.9-4.9,6.4,2.9,9.7,25.7ZM184.6,245.1l-.9,1.9,6.4,17,1.9.9,4.7-1.8.9-1.9-6.4-16.9-1.9-.9-4.7,1.7Z"/><path class="cls-2" d="M234.1,226.6l.1,6,13,6.8-6,5.1-12-6.1-2.9,2.5,8,9.4-5.5,4.7-24.2-28.5,13.3-11.3,7.3.7,8.9,10.7ZM220.5,234.2l4.9-4.2.2-2.1-3.3-3.9-2.1-.2-4.9,4.2,5.2,6.2Z"/><path class="cls-2" d="M75.6,257.3l-5.8-5.4,2.7-5.5-8-7.4-5.3,3.2-5.9-5.4,33.8-20.3,5.9,5.4-17.4,35.4ZM75.8,239.5l5.1-10.4-9.9,5.9,4.8,4.5Z"/><path class="cls-1" d="M179.1,225.2c.1.2.2.3.3.3.4,0,1.3-.2,1.3-.2l.8-.4,2.4-.9,5.9-2.8,1-.5.5-.2.6-.4,1-.6,1.2-.7,1.6-1,2.8-2,1.4-1.1,1.9-1.4,1.8-1.3.8-.6,1.2-1.1,1.2-1.2,2-2.1,2.3-2.2,2.6-3,1.4-1.9.5-.7,1.6-1.9,3-4.4.8-1.4,2-4,1.1-2.2,2-4,1.1-2.4,1.2-3.7s1.4-4.9,2.1-7.5c.1-.3.1-.6-.1-.8-.4-.6-.7-1.3-1.1-2-.2-.3-.5-.7-.7-1s-.7-.9-.9-1.2c-.2-.2-.5-.5-.7-.7-.6-.6-1.2-1.2-1.7-1.6-.3-.1-.5-.3-.7-.5-1.7-1.3-3.3-2.3-5.2-3.1-.8-.3-1.6-.6-2.4-.9-.6-.2-1.5-.4-2.1-.5-.3-.1-.6-.1-.9.1-.3.2-.3.6-.3,1-.1,1-.1,2.1-.2,3.2-.1,1.1-.2,2.1-.3,3.2-.1,1-.1,1.9-.2,2.9-.1,1.3-.3,2.5-.6,3.8-.4,2.3-.9,4.7-1.4,7-.1.6-.2,1.3-.5,1.9-.4,1-.7,2-.9,3.1-.4,2.2-1.2,4.3-2,6.4-.6,1.7-1.2,3.4-2.2,5-.1.1-.1.2-.1.3-.5,1.1-.9,2.2-1.4,3.2-.3.7-.8,1.3-1,2-.4.9-.9,1.7-1.4,2.5-.8,1.3-1.7,2.5-2.4,3.8-.5.9-1.1,1.8-1.7,2.6-.2.2-.3.4-.4.7-.5.7-.9,1.5-1.5,2.1-1,1.3-2.1,2.6-3.2,3.9-.7.8-1.4,1.5-2.1,2.3-.6.7-1.3,1.4-2,2.1-.1.1-.3.3-.5.4-.4.3-.8.6-1.2,1-.8.8-1.7,1.7-2.7,2.3-.4.3-.9.6-1.3.9-.8.7-2,1.4-3.4,2.1"/><path class="cls-1" d="M231.7,162.3s.1-.1.1-.2c0-.2.1-.6.1-.6l.6-5.1.3-4.8v-5.4l-.6-5.4s-.7-4.9-1.2-7.3c-.2-.9-.7-1.3-1.4-1.7-.2-.1-.5-.2-.8-.3-.5-.2-1.1-.4-1.6-.6-1.2-.3-2.4-.7-3.6-.9-1.5-.2-2.9-.4-4.4-.5-1.2-.1-2.4-.2-3.6-.2h-2.5c-.5,0-1.1,0-1.3.3-.2.3-.1.9,0,1.5.2,1.2.4,1.8.6,2.9.6,3.5,1.2,6.9,1.3,10.4.1,1.6.2,3.2.2,4.7v1.2c0,.3.1.6.2.8s.4.3.6.3c.3.1.6.1.9.2.3.1.9.2,1.2.3,1.4.5,2.9,1,4.2,1.5,1,.4,1.9.9,2.8,1.4.1.1.2.1.3.2.5.4,1.1.8,1.6,1.2,1.3.9,2.6,1.8,3.6,3.1.2.2.4.5.6.7.4.3,1,1.6,1.5,2.1.2.1.2.2.3.2"/><path class="cls-1" d="M195.6,104.8c.5,0,.9,0,1.3-.1.3,0,.5,0,.7-.3.1-.3-.1-.6-.2-.7-.1-.2-1-1.9-1-1.9l-.9-1.4-3.8-5.5-.8-.9-.7-1-1.2-1.4-3.1-3.4-1.3-1.3-4.8-4.4-3.9-3-1.4-.7-4.6-2.8-3.2-1.7-.6-.3-2.6-1-3.9-1.4-.3-.1-1.2-.3-.3-.1-1.1-.3-2.3-.4h-1.1l-2.1-.4-2.5-.2-.9-.1h-1.5l-2.6.1-2.5.3h-2l-1.7.2-1.8.4-1.4.4-2.2.4h-.5l-2.1.7-1.2.3-.7.4-1.8.5-.9.5-1.1.4-2.7,1.1-3.4,1.3-1.1.5-2.4,1.3-2.1,1.4-1.9,1-.7.4-2.1,1.1-.3.2-2.4,1.9-2,1.3-.4.3-2.2,1.8-.8.7s-1.2,1-1.2,1.2l.8-.3s1.5-.6,1.6-.6h.3l2.2-.9h.3l2.4-1,1.3-.4,1.3-.5,1.8-.6,4.4-1.7h.4l2.2-.8,1.8-.7.2.2,3.4.1,2.2.2h.1l4.4.3h0l6.1.3v.1l2.2,1.9h.2l2.2,2.1.2-.1,3,.1.1-.1,7.6.4v.2l3.4,2h.1l6,2.9v.3l3.4-1.3,5,1.7.8,1.4,1.8.1,1.8,2h.2l1.4,1.6v.1h.2l3.9.9,1.5,2.2,3.6,1.3s3.9,1,5.9,1.2c2.3.6,4.4.5,5.8.4"/><path class="cls-1" d="M229.6,127.9c-.1-.6-.5-1.8-.5-1.8l-.2-.6-.2-.8-.6-1.9-.6-1.7-1.9-4.2-.8-2-1.1-2.4-1.3-2.1-.3-.6-.9-1.7-.8-1.3-.3-.4-5.5-7.4s-.5-.6-.8-.9c-.1-.2-.2-.3-.3-.3h0s-1.7,2.7-2.4,3.5c-.7.8-2.1,2.1-2.1,2.1,0,0-1.2,1-1.4,1.1-.2.2-1.1.7-1.1.7l-1.2.7s-.9.4-1.1.5c-.2.1-.3.1-.4.2s-.1.2-.1.4.1.3.2.5c.5,1.1,1,2.1,1.5,3.2.8,1.5,1.4,3.2,2,4.8.2.5.5,1.1.6,1.6.5,1.4.9,2.8,1.3,4.2.2.6.4,1.2.6,1.9.2.6.3,1.3.5,1.9.1.4.4.6.8.6h1.2c1.5,0,2.9-.1,4.4-.1.4,0,3.3.3,3.3.3,0,0,1,.1,1.5.2,1.1.2,2.2.5,3.3.7.9.2,1.9.5,2.7.9.4.2.9.3,1.3.4.1,0,.4.1.4.1.2-.1.3-.2.3-.3"/><path class="cls-1" d="M210.5,95.4c0-.2-.4-.8-.4-.8l-.3-.5-.8-.9-.5-.8-1-1s-.2-.2-.3-.3c-1.7-1.4-5.2-4.2-5.2-4.2l-1-.8-1.8-1.6-9-5.4-7.1-3.4-3.8-1.5-1.4-.5-4.7-1.6-3.3-.8-3.2-.7h-.5l-.3.3.1.1s.3.2.5.2c1,.4,2,.8,3,1.2.6.3,1.3.6,1.9.8.5.1.9.3,1.3.5,1.5.9,3,1.8,4.5,2.7.9.5,1.7,1.2,2.5,1.9.6.5,1.2,1.1,1.9,1.4.3.2.6.5.9.7.2.1.3.3.5.4.9.7,1.8,1.4,2.6,2.2.8.9,1.7,1.8,2.6,2.6.8.8,1.7,1.6,2.4,2.6.6.8,1.2,1.5,1.9,2.2,1.3,1.3,2.3,2.8,3.5,4.2.1.2.2.4.4.6.8,1.2,1.5,2.5,2.4,3.6.6.8,1.2,1.6,1.7,2.5.3.5.6,1.1,1,1.6.2.3.5.4.7.4s.5-.2.5-.2l.6-.3s.8-.4,1.1-.5.8-.4,1.1-.6c.2-.2,1.1-.8,1.5-1.2.5-.4,1.4-1.6,1.4-1.6l.7-.9,1.2-2s.2-.4.2-.6"/><path class="cls-1" d="M206.7,125.4c-.5-1.5-.9-2.9-1.4-4.4-.4-1.2-.8-2.5-1.3-3.6-.3-.7-.5-1.5-.8-2.2-.1-.4-.3-.7-.4-1.1-.7-1.9-1.6-3.4-2.5-5.2,0-.1-.1-.2-.2-.3-.1-.2-.2-.3-.4-.4-.2-.1-.4,0-.8,0-.8.1-1.7.2-2.1.2s-1.9.1-3.1.2l-.3-.1h-1.5l-3.9-.5c-1.4-.2-4.7-1-4.7-1l-2.4-.8-2.9-1-.2.1-4.6-.4-.1.1-2.6-2h-.3l-1.6-1.5-.1-.3-1.8-.3-.2.1-1.5-.5-.2-.2-3.4.2-3.1-1.2-10.6.6-.2-.1-2,.1-.2.2-5.2.4-.1-.1-7.4,4.3-.1.3-.3.3-.2-.1-3.7-.4-.2.1h-6.6l-.1-.1-1.9-.1-.6-.3-6.9,5.4v.1l-2.4,1.9-2.7-1.3-.2.1-1-.3s-5,1.3-4.9,1.3l-4.7-.7-.3-.3-.9.9-1.9.9v.2l-3.7,2.8-5.3,3.8-6,4.4-2.7,2-.1,1.1-1.1,2.6-.5,2.2-.7,4.5-.4,2-.2,2.4-.6,4.9-.3,10.8.3.6.2,3s0,.5.2.5h0l13.2-13.6,4.3-1.7,3.6-.2,2.2-2.5.2-.5.3.1,5.9-.7.3-.2h2.2l.3.1.7-.9,2.7-1.6,2.8-2,8,.1.1.2,3.1.3,2.4-.5,4.5-4.6h.1l3.6-3.4,5.3-.7.2-.1.2.2,2.8,1.3.2-.2,2.5-.3.1-.1,2.3-.4.2-.1,2.5,2.1.1-.2,5.2-.1.4-.3,4.1.2.2.1.6-.2.1-.2,1.7-.7h.2l1.9-.9.2-.2,2-.8.1-.2,5.6-2.2v-.1l1-.3.2-.2.3.3,1.6.8h.5l1.8,1,.1-.2.6-.3h.1l.9-.4v-.1l1.3-.3,3.4.9.7-.2.6.4,2.5.4,2.4.9,1.4-.1.5.3.4-.2s4.8-.6,7.2-.8c1.6-.1,3.1-.3,4.7-.4.9-.1,1.8-.2,2.6-.3.6.5.8.3.6-.3"/><path class="cls-1" d="M210.2,149.9c0-.3-.1-.5-.1-.9-.1-.9-.1-1.8-.1-2.8,0-.3-.1-.6-.1-.9-.1-1.1-.1-2.3-.2-3.4-.1-1.5-.4-2.9-.6-4.3-.2-1.1-.4-2.2-.6-3.3-.2-1.2-.4-2.2-.7-3.4-.3-1.2-.5-1.3-1.7-1.2-.1,0-.2,0-.3.1-.4.1-1.1.1-1.5.2-2.3.3-4.5.4-6.9.7l-6.7,2.3-9.7-.3-1.1-.3v.2l-2.9,2.1h-.4l-2.3,2.1-.1.3-5.8.8-5.3,4.1h-.6l-2.8,1.7-1.1.1-1.1.9-.3-.2-5.4-.4-.9,1.1v.2l-4.7,5.1-.1.3h-.2l-6,6.8h-1.6l-.1.2-4.9.8h-.4l-.1.2-8.1,4.5-3.6-.4-.8.3-3.6-.2-3.6,3.9-2.1.4-1.2-.1-1.3.5-.8-.1v.2l-4.4,3.4-.4.1-6.9,5.4.1.3-4.3,10.4.2.4-7.1.6-2.3,2-.2.8,3.2,4.4,2.3,3.6,2,2.6,3.3,3.6s0,.2.1.3c.1,0,.4,0,.4.1l2,.7,2.4.8s0,.1.1.1h.2l4,1.6h.3l.2.3h.4l.9.6,1.7-.9h.1l.8-.5,6.1,1.5,4.5-2.3,9.9-1,4.1-6.5,1.8-1.8h.2l1.4-1.3v-.2l2.5-2.3,1.2-1.2.3-.2,1.4-1.4,1.1-1.1.3-.1-.3-1,1.1-4.2,2.2-.7.1-.1.7-.1v-.4l3-4.8.3-.1,1.2-2.4,2-1.1.3-.3.4.1,1.2-.7h.1l2.2-1,.2-.3,7.3-3.3h.4l.1-.4.3-.2.7-2.5,2.3-1,2.7-.3,2.4-1.7,3.4.1.3.3.2-.2,4.8-2.1v-.6l1.2-2.2,2.4-.6.1-.2,3.2-.7,1.2-1.5h.2s.7-.7.8-.7l2.2.3.1.1,1.2.2.8.1s3.3-1.5,4.6-2.1c.6-.2,1.1-.4,1.7-.6.8-.3,1.5-.5,2.3-.8.4-.1.8-.2,1.1-.3l1.5-.3,1.8-.3,1.1-.1s.5-.1.7-.1.5,0,.7-.2.2-.4.3-.6c-.2-.7-.2-.8-.2-1.1"/><path class="cls-1" d="M210.1,156.3c0-.3,0-.7-.2-.9s-.5-.3-.6-.3c-.2,0-1,.1-1,.1l-1.4.2c-.2,0-.3,0-.5.1-.8.2-1.7.4-2.5.6-.9.3-1.9.5-2.7.9-.9.4-2,.7-2.9,1.2-.3.2-3.5,1.7-4.9,2.4l-1.8,1.9-.1.4-.2-.1-1.1.1-.1.1-3.7,1.2v.4l-.4.4v.2l-1.7,3h-.2v.3s-.4.6-.7,1.2l-7.8,5h-.2l-1.2,1-.8,3.3-.8.7-3,11.3.4,1.3-4.5,2.2h-.7l-.9,3.9-.1.1-1.1,3.6.1.2-.5,3.1-.2.2.1.3-4.3,6.9-.3.1-1.1,1.7v.3l-3.7,5.2-3.9,2.3.2.3-.2,1.6.3.6-.6.2-2.8,1.7-.3-.1-4.2,2.5-.5.8c0,.1,1.6.2,1.6.2l2.7.2,1.8.1h6.3l5.8-.7,3.5-.6,2.6-.7,2.8-.8,3.6-1.4.3-.2,1-.6s2.9-1.5,4.2-2.5c2.2-1.7,4.5-3.4,6.6-5.3.7-.7,1.4-1.3,2.1-2,.7-.6,1.3-1.3,2-2,.1-.1.3-.2.3-.4.2-.5.6-.9,1-1.3.3-.3.6-.6.8-.9.4-.7,1.1-1.2,1.7-1.8.5-.5.9-1,1.3-1.5.7-1,1.3-2,2-3,.9-1.3,1.8-2.6,2.6-4,.8-1.5,1.6-3,2.4-4.4.7-1.2,1.4-2.5,2-3.8.9-2.2,1.9-4.3,2.7-6.6.9-2.3,1.6-4.7,2.2-7.2.5-1.8.8-3.7,1.4-5.4.1-.2.1-.5.2-.7.3-1.5.5-3,.7-4.4s.4-2.8.6-4.2c.1-1,.3-1.9.4-2.9.1-1.3.2-2.7.2-4v-.4s-.1-.3-.1-.5"/></svg>